<?xml version="1.0" encoding="UTF-8"?>
<!DOCTYPE svg PUBLIC "-//W3C//DTD SVG 1.0//EN" "http://www.w3.org/TR/2001/REC-SVG-20010904/DTD/svg10.dtd">
<svg xmlns:xlink="http://www.w3.org/1999/xlink" style="fill-opacity:1; color-rendering:auto; color-interpolation:auto; text-rendering:auto; stroke:black; stroke-linecap:square; stroke-miterlimit:10; shape-rendering:auto; stroke-opacity:1; fill:black; stroke-dasharray:none; font-weight:normal; stroke-width:1; font-family:'Dialog'; font-style:normal; stroke-linejoin:miter; font-size:12px; stroke-dashoffset:0; image-rendering:auto;" xmlns="http://www.w3.org/2000/svg" width="1920" height="962"><!--Generated by the Batik Graphics2D SVG Generator--><defs id="genericDefs"/><g style="transform: translate(-300px, -50px);"><defs id="defs1"><clipPath clipPathUnits="userSpaceOnUse" id="clipPath1"><path d="M0 0 L3840 0 L3840 1924 L0 1924 L0 0 Z"/></clipPath></defs><g style="fill:white; stroke:white;"><rect x="0" y="0" style="clip-path:url(#clipPath1); stroke:none;" width="1920" height="962"/></g><g style="fill:white; text-rendering:optimizeSpeed; color-rendering:optimizeSpeed; image-rendering:optimizeSpeed; shape-rendering:crispEdges; stroke:white; color-interpolation:sRGB;"><rect x="0" y="0" style="stroke:none;" width="1920" height="962"/><path style="stroke:none;" d="M499 801 L1784 801 L1784 144 L499 144 Z"/></g><g style="fill-opacity:0.251; color-rendering:optimizeQuality; color-interpolation:linearRGB; text-rendering:geometricPrecision; stroke:rgb(26,26,26); stroke-linecap:butt; stroke-miterlimit:1; stroke-opacity:0.251; fill:rgb(26,26,26); stroke-dasharray:6,6; stroke-width:6.6667; stroke-linejoin:bevel; image-rendering:optimizeQuality;"><line y2="144" style="fill:none;" x1="576.3647" x2="576.3647" y1="801"/><line y2="144" style="fill:none;" x1="621.6202" x2="621.6202" y1="801"/><line y2="144" style="fill:none;" x1="653.7294" x2="653.7294" y1="801"/><line y2="144" style="fill:none;" x1="678.6353" x2="678.6353" y1="801"/><line y2="144" style="fill:none;" x1="698.9849" x2="698.9849" y1="801"/><line y2="144" style="fill:none;" x1="716.1902" x2="716.1902" y1="801"/><line y2="144" style="fill:none;" x1="731.0941" x2="731.0941" y1="801"/><line y2="144" style="fill:none;" x1="744.2403" x2="744.2403" y1="801"/><line y2="144" style="fill:none;" x1="833.3647" x2="833.3647" y1="801"/><line y2="144" style="fill:none;" x1="878.6202" x2="878.6202" y1="801"/><line y2="144" style="fill:none;" x1="910.7294" x2="910.7294" y1="801"/><line y2="144" style="fill:none;" x1="935.6353" x2="935.6353" y1="801"/><line y2="144" style="fill:none;" x1="955.9849" x2="955.9849" y1="801"/><line y2="144" style="fill:none;" x1="973.1902" x2="973.1902" y1="801"/><line y2="144" style="fill:none;" x1="988.0941" x2="988.0941" y1="801"/><line y2="144" style="fill:none;" x1="1001.2403" x2="1001.2403" y1="801"/><line y2="144" style="fill:none;" x1="1090.3647" x2="1090.3647" y1="801"/><line y2="144" style="fill:none;" x1="1135.6201" x2="1135.6201" y1="801"/><line y2="144" style="fill:none;" x1="1167.7295" x2="1167.7295" y1="801"/><line y2="144" style="fill:none;" x1="1192.6354" x2="1192.6354" y1="801"/><line y2="144" style="fill:none;" x1="1212.9849" x2="1212.9849" y1="801"/><line y2="144" style="fill:none;" x1="1230.1902" x2="1230.1902" y1="801"/><line y2="144" style="fill:none;" x1="1245.0941" x2="1245.0941" y1="801"/><line y2="144" style="fill:none;" x1="1258.2404" x2="1258.2404" y1="801"/><line y2="144" style="fill:none;" x1="1347.3647" x2="1347.3647" y1="801"/><line y2="144" style="fill:none;" x1="1392.6201" x2="1392.6201" y1="801"/><line y2="144" style="fill:none;" x1="1424.7295" x2="1424.7295" y1="801"/><line y2="144" style="fill:none;" x1="1449.6353" x2="1449.6353" y1="801"/><line y2="144" style="fill:none;" x1="1469.9849" x2="1469.9849" y1="801"/><line y2="144" style="fill:none;" x1="1487.1902" x2="1487.1902" y1="801"/><line y2="144" style="fill:none;" x1="1502.0941" x2="1502.0941" y1="801"/><line y2="144" style="fill:none;" x1="1515.2404" x2="1515.2404" y1="801"/><line y2="144" style="fill:none;" x1="1604.3647" x2="1604.3647" y1="801"/><line y2="144" style="fill:none;" x1="1649.6201" x2="1649.6201" y1="801"/><line y2="144" style="fill:none;" x1="1681.7294" x2="1681.7294" y1="801"/><line y2="144" style="fill:none;" x1="1706.6353" x2="1706.6353" y1="801"/><line y2="144" style="fill:none;" x1="1726.9849" x2="1726.9849" y1="801"/><line y2="144" style="fill:none;" x1="1744.1902" x2="1744.1902" y1="801"/><line y2="144" style="fill:none;" x1="1759.0941" x2="1759.0941" y1="801"/><line y2="144" style="fill:none;" x1="1772.2404" x2="1772.2404" y1="801"/></g><g style="stroke-linecap:butt; fill-opacity:0.149; fill:rgb(38,38,38); text-rendering:geometricPrecision; image-rendering:optimizeQuality; color-rendering:optimizeQuality; stroke-linejoin:round; stroke:rgb(38,38,38); color-interpolation:linearRGB; stroke-width:6.6667; stroke-opacity:0.149;"><line y2="144" style="fill:none;" x1="499" x2="499" y1="801"/><line y2="144" style="fill:none;" x1="756" x2="756" y1="801"/><line y2="144" style="fill:none;" x1="1013" x2="1013" y1="801"/><line y2="144" style="fill:none;" x1="1270" x2="1270" y1="801"/><line y2="144" style="fill:none;" x1="1527" x2="1527" y1="801"/><line y2="144" style="fill:none;" x1="1784" x2="1784" y1="801"/><line y2="801" style="fill:none;" x1="1784" x2="499" y1="801"/><line y2="691.5" style="fill:none;" x1="1784" x2="499" y1="691.5"/><line y2="582" style="fill:none;" x1="1784" x2="499" y1="582"/><line y2="472.5" style="fill:none;" x1="1784" x2="499" y1="472.5"/><line y2="363" style="fill:none;" x1="1784" x2="499" y1="363"/><line y2="253.5" style="fill:none;" x1="1784" x2="499" y1="253.5"/><line y2="144" style="fill:none;" x1="1784" x2="499" y1="144"/><line x1="499" x2="1784" y1="801" style="stroke-linecap:square; fill-opacity:1; fill:none; stroke-opacity:1;" y2="801"/><line x1="499" x2="1784" y1="144" style="stroke-linecap:square; fill-opacity:1; fill:none; stroke-opacity:1;" y2="144"/><line x1="499" x2="499" y1="801" style="stroke-linecap:square; fill-opacity:1; fill:none; stroke-opacity:1;" y2="788.15"/><line x1="756" x2="756" y1="801" style="stroke-linecap:square; fill-opacity:1; fill:none; stroke-opacity:1;" y2="788.15"/><line x1="1013" x2="1013" y1="801" style="stroke-linecap:square; fill-opacity:1; fill:none; stroke-opacity:1;" y2="788.15"/><line x1="1270" x2="1270" y1="801" style="stroke-linecap:square; fill-opacity:1; fill:none; stroke-opacity:1;" y2="788.15"/><line x1="1527" x2="1527" y1="801" style="stroke-linecap:square; fill-opacity:1; fill:none; stroke-opacity:1;" y2="788.15"/><line x1="1784" x2="1784" y1="801" style="stroke-linecap:square; fill-opacity:1; fill:none; stroke-opacity:1;" y2="788.15"/><line x1="499" x2="499" y1="144" style="stroke-linecap:square; fill-opacity:1; fill:none; stroke-opacity:1;" y2="156.85"/><line x1="756" x2="756" y1="144" style="stroke-linecap:square; fill-opacity:1; fill:none; stroke-opacity:1;" y2="156.85"/><line x1="1013" x2="1013" y1="144" style="stroke-linecap:square; fill-opacity:1; fill:none; stroke-opacity:1;" y2="156.85"/><line x1="1270" x2="1270" y1="144" style="stroke-linecap:square; fill-opacity:1; fill:none; stroke-opacity:1;" y2="156.85"/><line x1="1527" x2="1527" y1="144" style="stroke-linecap:square; fill-opacity:1; fill:none; stroke-opacity:1;" y2="156.85"/><line x1="1784" x2="1784" y1="144" style="stroke-linecap:square; fill-opacity:1; fill:none; stroke-opacity:1;" y2="156.85"/><line x1="499" x2="499" y1="801" style="stroke-linecap:square; fill-opacity:1; fill:none; stroke-opacity:1;" y2="794.575"/><line x1="576.3647" x2="576.3647" y1="801" style="stroke-linecap:square; fill-opacity:1; fill:none; stroke-opacity:1;" y2="794.575"/><line x1="621.6202" x2="621.6202" y1="801" style="stroke-linecap:square; fill-opacity:1; fill:none; stroke-opacity:1;" y2="794.575"/><line x1="653.7294" x2="653.7294" y1="801" style="stroke-linecap:square; fill-opacity:1; fill:none; stroke-opacity:1;" y2="794.575"/><line x1="678.6353" x2="678.6353" y1="801" style="stroke-linecap:square; fill-opacity:1; fill:none; stroke-opacity:1;" y2="794.575"/><line x1="698.9849" x2="698.9849" y1="801" style="stroke-linecap:square; fill-opacity:1; fill:none; stroke-opacity:1;" y2="794.575"/><line x1="716.1902" x2="716.1902" y1="801" style="stroke-linecap:square; fill-opacity:1; fill:none; stroke-opacity:1;" y2="794.575"/><line x1="731.0941" x2="731.0941" y1="801" style="stroke-linecap:square; fill-opacity:1; fill:none; stroke-opacity:1;" y2="794.575"/><line x1="744.2403" x2="744.2403" y1="801" style="stroke-linecap:square; fill-opacity:1; fill:none; stroke-opacity:1;" y2="794.575"/><line x1="756" x2="756" y1="801" style="stroke-linecap:square; fill-opacity:1; fill:none; stroke-opacity:1;" y2="794.575"/><line x1="833.3647" x2="833.3647" y1="801" style="stroke-linecap:square; fill-opacity:1; fill:none; stroke-opacity:1;" y2="794.575"/><line x1="878.6202" x2="878.6202" y1="801" style="stroke-linecap:square; fill-opacity:1; fill:none; stroke-opacity:1;" y2="794.575"/><line x1="910.7294" x2="910.7294" y1="801" style="stroke-linecap:square; fill-opacity:1; fill:none; stroke-opacity:1;" y2="794.575"/><line x1="935.6353" x2="935.6353" y1="801" style="stroke-linecap:square; fill-opacity:1; fill:none; stroke-opacity:1;" y2="794.575"/><line x1="955.9849" x2="955.9849" y1="801" style="stroke-linecap:square; fill-opacity:1; fill:none; stroke-opacity:1;" y2="794.575"/><line x1="973.1902" x2="973.1902" y1="801" style="stroke-linecap:square; fill-opacity:1; fill:none; stroke-opacity:1;" y2="794.575"/><line x1="988.0941" x2="988.0941" y1="801" style="stroke-linecap:square; fill-opacity:1; fill:none; stroke-opacity:1;" y2="794.575"/><line x1="1001.2403" x2="1001.2403" y1="801" style="stroke-linecap:square; fill-opacity:1; fill:none; stroke-opacity:1;" y2="794.575"/><line x1="1013" x2="1013" y1="801" style="stroke-linecap:square; fill-opacity:1; fill:none; stroke-opacity:1;" y2="794.575"/><line x1="1090.3647" x2="1090.3647" y1="801" style="stroke-linecap:square; fill-opacity:1; fill:none; stroke-opacity:1;" y2="794.575"/><line x1="1135.6201" x2="1135.6201" y1="801" style="stroke-linecap:square; fill-opacity:1; fill:none; stroke-opacity:1;" y2="794.575"/><line x1="1167.7295" x2="1167.7295" y1="801" style="stroke-linecap:square; fill-opacity:1; fill:none; stroke-opacity:1;" y2="794.575"/><line x1="1192.6354" x2="1192.6354" y1="801" style="stroke-linecap:square; fill-opacity:1; fill:none; stroke-opacity:1;" y2="794.575"/><line x1="1212.9849" x2="1212.9849" y1="801" style="stroke-linecap:square; fill-opacity:1; fill:none; stroke-opacity:1;" y2="794.575"/><line x1="1230.1902" x2="1230.1902" y1="801" style="stroke-linecap:square; fill-opacity:1; fill:none; stroke-opacity:1;" y2="794.575"/><line x1="1245.0941" x2="1245.0941" y1="801" style="stroke-linecap:square; fill-opacity:1; fill:none; stroke-opacity:1;" y2="794.575"/><line x1="1258.2404" x2="1258.2404" y1="801" style="stroke-linecap:square; fill-opacity:1; fill:none; stroke-opacity:1;" y2="794.575"/><line x1="1270" x2="1270" y1="801" style="stroke-linecap:square; fill-opacity:1; fill:none; stroke-opacity:1;" y2="794.575"/><line x1="1347.3647" x2="1347.3647" y1="801" style="stroke-linecap:square; fill-opacity:1; fill:none; stroke-opacity:1;" y2="794.575"/><line x1="1392.6201" x2="1392.6201" y1="801" style="stroke-linecap:square; fill-opacity:1; fill:none; stroke-opacity:1;" y2="794.575"/><line x1="1424.7295" x2="1424.7295" y1="801" style="stroke-linecap:square; fill-opacity:1; fill:none; stroke-opacity:1;" y2="794.575"/><line x1="1449.6353" x2="1449.6353" y1="801" style="stroke-linecap:square; fill-opacity:1; fill:none; stroke-opacity:1;" y2="794.575"/><line x1="1469.9849" x2="1469.9849" y1="801" style="stroke-linecap:square; fill-opacity:1; fill:none; stroke-opacity:1;" y2="794.575"/><line x1="1487.1902" x2="1487.1902" y1="801" style="stroke-linecap:square; fill-opacity:1; fill:none; stroke-opacity:1;" y2="794.575"/><line x1="1502.0941" x2="1502.0941" y1="801" style="stroke-linecap:square; fill-opacity:1; fill:none; stroke-opacity:1;" y2="794.575"/><line x1="1515.2404" x2="1515.2404" y1="801" style="stroke-linecap:square; fill-opacity:1; fill:none; stroke-opacity:1;" y2="794.575"/><line x1="1527" x2="1527" y1="801" style="stroke-linecap:square; fill-opacity:1; fill:none; stroke-opacity:1;" y2="794.575"/><line x1="1604.3647" x2="1604.3647" y1="801" style="stroke-linecap:square; fill-opacity:1; fill:none; stroke-opacity:1;" y2="794.575"/><line x1="1649.6201" x2="1649.6201" y1="801" style="stroke-linecap:square; fill-opacity:1; fill:none; stroke-opacity:1;" y2="794.575"/><line x1="1681.7294" x2="1681.7294" y1="801" style="stroke-linecap:square; fill-opacity:1; fill:none; stroke-opacity:1;" y2="794.575"/><line x1="1706.6353" x2="1706.6353" y1="801" style="stroke-linecap:square; fill-opacity:1; fill:none; stroke-opacity:1;" y2="794.575"/><line x1="1726.9849" x2="1726.9849" y1="801" style="stroke-linecap:square; fill-opacity:1; fill:none; stroke-opacity:1;" y2="794.575"/><line x1="1744.1902" x2="1744.1902" y1="801" style="stroke-linecap:square; fill-opacity:1; fill:none; stroke-opacity:1;" y2="794.575"/><line x1="1759.0941" x2="1759.0941" y1="801" style="stroke-linecap:square; fill-opacity:1; fill:none; stroke-opacity:1;" y2="794.575"/><line x1="1772.2404" x2="1772.2404" y1="801" style="stroke-linecap:square; fill-opacity:1; fill:none; stroke-opacity:1;" y2="794.575"/><line x1="1784" x2="1784" y1="801" style="stroke-linecap:square; fill-opacity:1; fill:none; stroke-opacity:1;" y2="794.575"/><line x1="499" x2="499" y1="144" style="stroke-linecap:square; fill-opacity:1; fill:none; stroke-opacity:1;" y2="150.425"/><line x1="576.3647" x2="576.3647" y1="144" style="stroke-linecap:square; fill-opacity:1; fill:none; stroke-opacity:1;" y2="150.425"/><line x1="621.6202" x2="621.6202" y1="144" style="stroke-linecap:square; fill-opacity:1; fill:none; stroke-opacity:1;" y2="150.425"/><line x1="653.7294" x2="653.7294" y1="144" style="stroke-linecap:square; fill-opacity:1; fill:none; stroke-opacity:1;" y2="150.425"/><line x1="678.6353" x2="678.6353" y1="144" style="stroke-linecap:square; fill-opacity:1; fill:none; stroke-opacity:1;" y2="150.425"/><line x1="698.9849" x2="698.9849" y1="144" style="stroke-linecap:square; fill-opacity:1; fill:none; stroke-opacity:1;" y2="150.425"/><line x1="716.1902" x2="716.1902" y1="144" style="stroke-linecap:square; fill-opacity:1; fill:none; stroke-opacity:1;" y2="150.425"/><line x1="731.0941" x2="731.0941" y1="144" style="stroke-linecap:square; fill-opacity:1; fill:none; stroke-opacity:1;" y2="150.425"/><line x1="744.2403" x2="744.2403" y1="144" style="stroke-linecap:square; fill-opacity:1; fill:none; stroke-opacity:1;" y2="150.425"/><line x1="756" x2="756" y1="144" style="stroke-linecap:square; fill-opacity:1; fill:none; stroke-opacity:1;" y2="150.425"/><line x1="833.3647" x2="833.3647" y1="144" style="stroke-linecap:square; fill-opacity:1; fill:none; stroke-opacity:1;" y2="150.425"/><line x1="878.6202" x2="878.6202" y1="144" style="stroke-linecap:square; fill-opacity:1; fill:none; stroke-opacity:1;" y2="150.425"/><line x1="910.7294" x2="910.7294" y1="144" style="stroke-linecap:square; fill-opacity:1; fill:none; stroke-opacity:1;" y2="150.425"/><line x1="935.6353" x2="935.6353" y1="144" style="stroke-linecap:square; fill-opacity:1; fill:none; stroke-opacity:1;" y2="150.425"/><line x1="955.9849" x2="955.9849" y1="144" style="stroke-linecap:square; fill-opacity:1; fill:none; stroke-opacity:1;" y2="150.425"/><line x1="973.1902" x2="973.1902" y1="144" style="stroke-linecap:square; fill-opacity:1; fill:none; stroke-opacity:1;" y2="150.425"/><line x1="988.0941" x2="988.0941" y1="144" style="stroke-linecap:square; fill-opacity:1; fill:none; stroke-opacity:1;" y2="150.425"/><line x1="1001.2403" x2="1001.2403" y1="144" style="stroke-linecap:square; fill-opacity:1; fill:none; stroke-opacity:1;" y2="150.425"/><line x1="1013" x2="1013" y1="144" style="stroke-linecap:square; fill-opacity:1; fill:none; stroke-opacity:1;" y2="150.425"/><line x1="1090.3647" x2="1090.3647" y1="144" style="stroke-linecap:square; fill-opacity:1; fill:none; stroke-opacity:1;" y2="150.425"/><line x1="1135.6201" x2="1135.6201" y1="144" style="stroke-linecap:square; fill-opacity:1; fill:none; stroke-opacity:1;" y2="150.425"/><line x1="1167.7295" x2="1167.7295" y1="144" style="stroke-linecap:square; fill-opacity:1; fill:none; stroke-opacity:1;" y2="150.425"/><line x1="1192.6354" x2="1192.6354" y1="144" style="stroke-linecap:square; fill-opacity:1; fill:none; stroke-opacity:1;" y2="150.425"/><line x1="1212.9849" x2="1212.9849" y1="144" style="stroke-linecap:square; fill-opacity:1; fill:none; stroke-opacity:1;" y2="150.425"/><line x1="1230.1902" x2="1230.1902" y1="144" style="stroke-linecap:square; fill-opacity:1; fill:none; stroke-opacity:1;" y2="150.425"/><line x1="1245.0941" x2="1245.0941" y1="144" style="stroke-linecap:square; fill-opacity:1; fill:none; stroke-opacity:1;" y2="150.425"/><line x1="1258.2404" x2="1258.2404" y1="144" style="stroke-linecap:square; fill-opacity:1; fill:none; stroke-opacity:1;" y2="150.425"/><line x1="1270" x2="1270" y1="144" style="stroke-linecap:square; fill-opacity:1; fill:none; stroke-opacity:1;" y2="150.425"/><line x1="1347.3647" x2="1347.3647" y1="144" style="stroke-linecap:square; fill-opacity:1; fill:none; stroke-opacity:1;" y2="150.425"/><line x1="1392.6201" x2="1392.6201" y1="144" style="stroke-linecap:square; fill-opacity:1; fill:none; stroke-opacity:1;" y2="150.425"/><line x1="1424.7295" x2="1424.7295" y1="144" style="stroke-linecap:square; fill-opacity:1; fill:none; stroke-opacity:1;" y2="150.425"/><line x1="1449.6353" x2="1449.6353" y1="144" style="stroke-linecap:square; fill-opacity:1; fill:none; stroke-opacity:1;" y2="150.425"/><line x1="1469.9849" x2="1469.9849" y1="144" style="stroke-linecap:square; fill-opacity:1; fill:none; stroke-opacity:1;" y2="150.425"/><line x1="1487.1902" x2="1487.1902" y1="144" style="stroke-linecap:square; fill-opacity:1; fill:none; stroke-opacity:1;" y2="150.425"/><line x1="1502.0941" x2="1502.0941" y1="144" style="stroke-linecap:square; fill-opacity:1; fill:none; stroke-opacity:1;" y2="150.425"/><line x1="1515.2404" x2="1515.2404" y1="144" style="stroke-linecap:square; fill-opacity:1; fill:none; stroke-opacity:1;" y2="150.425"/><line x1="1527" x2="1527" y1="144" style="stroke-linecap:square; fill-opacity:1; fill:none; stroke-opacity:1;" y2="150.425"/><line x1="1604.3647" x2="1604.3647" y1="144" style="stroke-linecap:square; fill-opacity:1; fill:none; stroke-opacity:1;" y2="150.425"/><line x1="1649.6201" x2="1649.6201" y1="144" style="stroke-linecap:square; fill-opacity:1; fill:none; stroke-opacity:1;" y2="150.425"/><line x1="1681.7294" x2="1681.7294" y1="144" style="stroke-linecap:square; fill-opacity:1; fill:none; stroke-opacity:1;" y2="150.425"/><line x1="1706.6353" x2="1706.6353" y1="144" style="stroke-linecap:square; fill-opacity:1; fill:none; stroke-opacity:1;" y2="150.425"/><line x1="1726.9849" x2="1726.9849" y1="144" style="stroke-linecap:square; fill-opacity:1; fill:none; stroke-opacity:1;" y2="150.425"/><line x1="1744.1902" x2="1744.1902" y1="144" style="stroke-linecap:square; fill-opacity:1; fill:none; stroke-opacity:1;" y2="150.425"/><line x1="1759.0941" x2="1759.0941" y1="144" style="stroke-linecap:square; fill-opacity:1; fill:none; stroke-opacity:1;" y2="150.425"/><line x1="1772.2404" x2="1772.2404" y1="144" style="stroke-linecap:square; fill-opacity:1; fill:none; stroke-opacity:1;" y2="150.425"/><line x1="1784" x2="1784" y1="144" style="stroke-linecap:square; fill-opacity:1; fill:none; stroke-opacity:1;" y2="150.425"/></g><g transform="translate(469,860)" style="font-size:37.3333px; fill:rgb(38,38,38); text-rendering:geometricPrecision; image-rendering:optimizeQuality; color-rendering:optimizeQuality; font-family:'Arial'; stroke:rgb(38,38,38); color-interpolation:linearRGB; font-weight:bold;"><path style="stroke:none;" d="M14.5625 0 L9.4844 0 L9.4844 -19.125 Q6.7031 -16.5312 2.9219 -15.2812 L2.9219 -19.8906 Q4.9219 -20.5469 7.25 -22.3594 Q9.5781 -24.1719 10.4375 -26.5938 L14.5625 -26.5938 L14.5625 0 ZM30.9077 -26.5938 Q34.7514 -26.5938 36.9233 -23.8438 Q39.5014 -20.5938 39.5014 -13.0625 Q39.5014 -5.5469 36.9077 -2.2656 Q34.7514 0.4531 30.9077 0.4531 Q27.0327 0.4531 24.6655 -2.5234 Q22.2983 -5.5 22.2983 -13.1094 Q22.2983 -20.5938 24.9077 -23.8906 Q27.0639 -26.5938 30.9077 -26.5938 ZM30.9077 -22.3906 Q29.9858 -22.3906 29.2592 -21.7969 Q28.5327 -21.2031 28.1421 -19.6875 Q27.6108 -17.7188 27.6108 -13.0625 Q27.6108 -8.4062 28.0874 -6.6641 Q28.5639 -4.9219 29.2749 -4.3438 Q29.9858 -3.7656 30.9077 -3.7656 Q31.8296 -3.7656 32.5483 -4.3516 Q33.2671 -4.9375 33.6733 -6.4531 Q34.1889 -8.4062 34.1889 -13.0625 Q34.1889 -17.7188 33.7202 -19.4609 Q33.2514 -21.2031 32.5405 -21.7969 Q31.8296 -22.3906 30.9077 -22.3906 Z"/></g><g transform="translate(511,842)" style="font-size:29.8667px; fill:rgb(38,38,38); text-rendering:geometricPrecision; image-rendering:optimizeQuality; color-rendering:optimizeQuality; font-family:'Arial'; stroke:rgb(38,38,38); color-interpolation:linearRGB; font-weight:bold;"><path style="stroke:none;" d="M8.2344 -21.5625 Q11.3594 -21.5625 13.1094 -19.3438 Q15.2031 -16.7031 15.2031 -10.5938 Q15.2031 -4.5 13.0938 -1.8281 Q11.3594 0.3594 8.2344 0.3594 Q5.0938 0.3594 3.1797 -2.0469 Q1.2656 -4.4531 1.2656 -10.6406 Q1.2656 -16.7031 3.375 -19.3594 Q5.1094 -21.5625 8.2344 -21.5625 ZM8.2344 -18.1562 Q7.4844 -18.1562 6.8984 -17.6797 Q6.3125 -17.2031 5.9844 -15.9688 Q5.5625 -14.375 5.5625 -10.5938 Q5.5625 -6.8125 5.9453 -5.3984 Q6.3281 -3.9844 6.9062 -3.5156 Q7.4844 -3.0469 8.2344 -3.0469 Q8.9844 -3.0469 9.5703 -3.5234 Q10.1562 -4 10.4688 -5.2344 Q10.9062 -6.8125 10.9062 -10.5938 Q10.9062 -14.375 10.5234 -15.7891 Q10.1406 -17.2031 9.5625 -17.6797 Q8.9844 -18.1562 8.2344 -18.1562 Z"/></g><g transform="translate(726,860)" style="font-size:37.3333px; fill:rgb(38,38,38); text-rendering:geometricPrecision; image-rendering:optimizeQuality; color-rendering:optimizeQuality; font-family:'Arial'; stroke:rgb(38,38,38); color-interpolation:linearRGB; font-weight:bold;"><path style="stroke:none;" d="M14.5625 0 L9.4844 0 L9.4844 -19.125 Q6.7031 -16.5312 2.9219 -15.2812 L2.9219 -19.8906 Q4.9219 -20.5469 7.25 -22.3594 Q9.5781 -24.1719 10.4375 -26.5938 L14.5625 -26.5938 L14.5625 0 ZM30.9077 -26.5938 Q34.7514 -26.5938 36.9233 -23.8438 Q39.5014 -20.5938 39.5014 -13.0625 Q39.5014 -5.5469 36.9077 -2.2656 Q34.7514 0.4531 30.9077 0.4531 Q27.0327 0.4531 24.6655 -2.5234 Q22.2983 -5.5 22.2983 -13.1094 Q22.2983 -20.5938 24.9077 -23.8906 Q27.0639 -26.5938 30.9077 -26.5938 ZM30.9077 -22.3906 Q29.9858 -22.3906 29.2592 -21.7969 Q28.5327 -21.2031 28.1421 -19.6875 Q27.6108 -17.7188 27.6108 -13.0625 Q27.6108 -8.4062 28.0874 -6.6641 Q28.5639 -4.9219 29.2749 -4.3438 Q29.9858 -3.7656 30.9077 -3.7656 Q31.8296 -3.7656 32.5483 -4.3516 Q33.2671 -4.9375 33.6733 -6.4531 Q34.1889 -8.4062 34.1889 -13.0625 Q34.1889 -17.7188 33.7202 -19.4609 Q33.2514 -21.2031 32.5405 -21.7969 Q31.8296 -22.3906 30.9077 -22.3906 Z"/></g><g transform="translate(768,842)" style="font-size:29.8667px; fill:rgb(38,38,38); text-rendering:geometricPrecision; image-rendering:optimizeQuality; color-rendering:optimizeQuality; font-family:'Arial'; stroke:rgb(38,38,38); color-interpolation:linearRGB; font-weight:bold;"><path style="stroke:none;" d="M11.8125 0 L7.6875 0 L7.6875 -15.5156 Q5.4375 -13.4062 2.375 -12.3906 L2.375 -16.125 Q3.9844 -16.6562 5.875 -18.125 Q7.7656 -19.5938 8.4688 -21.5625 L11.8125 -21.5625 L11.8125 0 Z"/></g><g transform="translate(983,860)" style="font-size:37.3333px; fill:rgb(38,38,38); text-rendering:geometricPrecision; image-rendering:optimizeQuality; color-rendering:optimizeQuality; font-family:'Arial'; stroke:rgb(38,38,38); color-interpolation:linearRGB; font-weight:bold;"><path style="stroke:none;" d="M14.5625 0 L9.4844 0 L9.4844 -19.125 Q6.7031 -16.5312 2.9219 -15.2812 L2.9219 -19.8906 Q4.9219 -20.5469 7.25 -22.3594 Q9.5781 -24.1719 10.4375 -26.5938 L14.5625 -26.5938 L14.5625 0 ZM30.9077 -26.5938 Q34.7514 -26.5938 36.9233 -23.8438 Q39.5014 -20.5938 39.5014 -13.0625 Q39.5014 -5.5469 36.9077 -2.2656 Q34.7514 0.4531 30.9077 0.4531 Q27.0327 0.4531 24.6655 -2.5234 Q22.2983 -5.5 22.2983 -13.1094 Q22.2983 -20.5938 24.9077 -23.8906 Q27.0639 -26.5938 30.9077 -26.5938 ZM30.9077 -22.3906 Q29.9858 -22.3906 29.2592 -21.7969 Q28.5327 -21.2031 28.1421 -19.6875 Q27.6108 -17.7188 27.6108 -13.0625 Q27.6108 -8.4062 28.0874 -6.6641 Q28.5639 -4.9219 29.2749 -4.3438 Q29.9858 -3.7656 30.9077 -3.7656 Q31.8296 -3.7656 32.5483 -4.3516 Q33.2671 -4.9375 33.6733 -6.4531 Q34.1889 -8.4062 34.1889 -13.0625 Q34.1889 -17.7188 33.7202 -19.4609 Q33.2514 -21.2031 32.5405 -21.7969 Q31.8296 -22.3906 30.9077 -22.3906 Z"/></g><g transform="translate(1025,842)" style="font-size:29.8667px; fill:rgb(38,38,38); text-rendering:geometricPrecision; image-rendering:optimizeQuality; color-rendering:optimizeQuality; font-family:'Arial'; stroke:rgb(38,38,38); color-interpolation:linearRGB; font-weight:bold;"><path style="stroke:none;" d="M15.1719 -3.8281 L15.1719 0 L0.75 0 Q0.9844 -2.1719 2.1562 -4.1094 Q3.3281 -6.0469 6.7812 -9.2656 Q9.5625 -11.8438 10.2031 -12.7812 Q11.0469 -14.0469 11.0469 -15.2969 Q11.0469 -16.6719 10.3047 -17.4141 Q9.5625 -18.1562 8.2656 -18.1562 Q6.9688 -18.1562 6.2109 -17.375 Q5.4531 -16.5938 5.3281 -14.7969 L1.2344 -15.2031 Q1.5938 -18.6094 3.5312 -20.0859 Q5.4688 -21.5625 8.3594 -21.5625 Q11.5469 -21.5625 13.3594 -19.8516 Q15.1719 -18.1406 15.1719 -15.5938 Q15.1719 -14.1406 14.6562 -12.8281 Q14.1406 -11.5156 13.0156 -10.0781 Q12.2656 -9.125 10.3125 -7.3359 Q8.3594 -5.5469 7.8438 -4.9609 Q7.3281 -4.375 7 -3.8281 L15.1719 -3.8281 Z"/></g><g transform="translate(1240,860)" style="font-size:37.3333px; fill:rgb(38,38,38); text-rendering:geometricPrecision; image-rendering:optimizeQuality; color-rendering:optimizeQuality; font-family:'Arial'; stroke:rgb(38,38,38); color-interpolation:linearRGB; font-weight:bold;"><path style="stroke:none;" d="M14.5625 0 L9.4844 0 L9.4844 -19.125 Q6.7031 -16.5312 2.9219 -15.2812 L2.9219 -19.8906 Q4.9219 -20.5469 7.25 -22.3594 Q9.5781 -24.1719 10.4375 -26.5938 L14.5625 -26.5938 L14.5625 0 ZM30.9077 -26.5938 Q34.7514 -26.5938 36.9233 -23.8438 Q39.5014 -20.5938 39.5014 -13.0625 Q39.5014 -5.5469 36.9077 -2.2656 Q34.7514 0.4531 30.9077 0.4531 Q27.0327 0.4531 24.6655 -2.5234 Q22.2983 -5.5 22.2983 -13.1094 Q22.2983 -20.5938 24.9077 -23.8906 Q27.0639 -26.5938 30.9077 -26.5938 ZM30.9077 -22.3906 Q29.9858 -22.3906 29.2592 -21.7969 Q28.5327 -21.2031 28.1421 -19.6875 Q27.6108 -17.7188 27.6108 -13.0625 Q27.6108 -8.4062 28.0874 -6.6641 Q28.5639 -4.9219 29.2749 -4.3438 Q29.9858 -3.7656 30.9077 -3.7656 Q31.8296 -3.7656 32.5483 -4.3516 Q33.2671 -4.9375 33.6733 -6.4531 Q34.1889 -8.4062 34.1889 -13.0625 Q34.1889 -17.7188 33.7202 -19.4609 Q33.2514 -21.2031 32.5405 -21.7969 Q31.8296 -22.3906 30.9077 -22.3906 Z"/></g><g transform="translate(1282,842)" style="font-size:29.8667px; fill:rgb(38,38,38); text-rendering:geometricPrecision; image-rendering:optimizeQuality; color-rendering:optimizeQuality; font-family:'Arial'; stroke:rgb(38,38,38); color-interpolation:linearRGB; font-weight:bold;"><path style="stroke:none;" d="M1.125 -5.7031 L5.1094 -6.1875 Q5.2969 -4.6562 6.1328 -3.8516 Q6.9688 -3.0469 8.1562 -3.0469 Q9.4375 -3.0469 10.3047 -4.0156 Q11.1719 -4.9844 11.1719 -6.625 Q11.1719 -8.1719 10.3359 -9.0781 Q9.5 -9.9844 8.3125 -9.9844 Q7.5156 -9.9844 6.4219 -9.6875 L6.875 -13.0312 Q8.5469 -13 9.4219 -13.7656 Q10.2969 -14.5312 10.2969 -15.8125 Q10.2969 -16.8906 9.6562 -17.5312 Q9.0156 -18.1719 7.9375 -18.1719 Q6.8906 -18.1719 6.1406 -17.4453 Q5.3906 -16.7188 5.2344 -15.3125 L1.4375 -15.9531 Q1.8281 -17.9062 2.625 -19.0703 Q3.4219 -20.2344 4.8516 -20.8984 Q6.2812 -21.5625 8.0625 -21.5625 Q11.0938 -21.5625 12.9219 -19.625 Q14.4219 -18.0469 14.4219 -16.0625 Q14.4219 -13.2344 11.3438 -11.5469 Q13.1875 -11.1406 14.2891 -9.7656 Q15.3906 -8.3906 15.3906 -6.4531 Q15.3906 -3.625 13.3281 -1.6328 Q11.2656 0.3594 8.1875 0.3594 Q5.2812 0.3594 3.3594 -1.3125 Q1.4375 -2.9844 1.125 -5.7031 Z"/></g><g transform="translate(1497,860)" style="font-size:37.3333px; fill:rgb(38,38,38); text-rendering:geometricPrecision; image-rendering:optimizeQuality; color-rendering:optimizeQuality; font-family:'Arial'; stroke:rgb(38,38,38); color-interpolation:linearRGB; font-weight:bold;"><path style="stroke:none;" d="M14.5625 0 L9.4844 0 L9.4844 -19.125 Q6.7031 -16.5312 2.9219 -15.2812 L2.9219 -19.8906 Q4.9219 -20.5469 7.25 -22.3594 Q9.5781 -24.1719 10.4375 -26.5938 L14.5625 -26.5938 L14.5625 0 ZM30.9077 -26.5938 Q34.7514 -26.5938 36.9233 -23.8438 Q39.5014 -20.5938 39.5014 -13.0625 Q39.5014 -5.5469 36.9077 -2.2656 Q34.7514 0.4531 30.9077 0.4531 Q27.0327 0.4531 24.6655 -2.5234 Q22.2983 -5.5 22.2983 -13.1094 Q22.2983 -20.5938 24.9077 -23.8906 Q27.0639 -26.5938 30.9077 -26.5938 ZM30.9077 -22.3906 Q29.9858 -22.3906 29.2592 -21.7969 Q28.5327 -21.2031 28.1421 -19.6875 Q27.6108 -17.7188 27.6108 -13.0625 Q27.6108 -8.4062 28.0874 -6.6641 Q28.5639 -4.9219 29.2749 -4.3438 Q29.9858 -3.7656 30.9077 -3.7656 Q31.8296 -3.7656 32.5483 -4.3516 Q33.2671 -4.9375 33.6733 -6.4531 Q34.1889 -8.4062 34.1889 -13.0625 Q34.1889 -17.7188 33.7202 -19.4609 Q33.2514 -21.2031 32.5405 -21.7969 Q31.8296 -22.3906 30.9077 -22.3906 Z"/></g><g transform="translate(1539,842)" style="font-size:29.8667px; fill:rgb(38,38,38); text-rendering:geometricPrecision; image-rendering:optimizeQuality; color-rendering:optimizeQuality; font-family:'Arial'; stroke:rgb(38,38,38); color-interpolation:linearRGB; font-weight:bold;"><path style="stroke:none;" d="M9.3438 0 L9.3438 -4.3281 L0.5625 -4.3281 L0.5625 -7.9219 L9.875 -21.5625 L13.3281 -21.5625 L13.3281 -7.9375 L16 -7.9375 L16 -4.3281 L13.3281 -4.3281 L13.3281 0 L9.3438 0 ZM9.3438 -7.9375 L9.3438 -15.2812 L4.4062 -7.9375 L9.3438 -7.9375 Z"/></g><g transform="translate(1754,860)" style="font-size:37.3333px; fill:rgb(38,38,38); text-rendering:geometricPrecision; image-rendering:optimizeQuality; color-rendering:optimizeQuality; font-family:'Arial'; stroke:rgb(38,38,38); color-interpolation:linearRGB; font-weight:bold;"><path style="stroke:none;" d="M14.5625 0 L9.4844 0 L9.4844 -19.125 Q6.7031 -16.5312 2.9219 -15.2812 L2.9219 -19.8906 Q4.9219 -20.5469 7.25 -22.3594 Q9.5781 -24.1719 10.4375 -26.5938 L14.5625 -26.5938 L14.5625 0 ZM30.9077 -26.5938 Q34.7514 -26.5938 36.9233 -23.8438 Q39.5014 -20.5938 39.5014 -13.0625 Q39.5014 -5.5469 36.9077 -2.2656 Q34.7514 0.4531 30.9077 0.4531 Q27.0327 0.4531 24.6655 -2.5234 Q22.2983 -5.5 22.2983 -13.1094 Q22.2983 -20.5938 24.9077 -23.8906 Q27.0639 -26.5938 30.9077 -26.5938 ZM30.9077 -22.3906 Q29.9858 -22.3906 29.2592 -21.7969 Q28.5327 -21.2031 28.1421 -19.6875 Q27.6108 -17.7188 27.6108 -13.0625 Q27.6108 -8.4062 28.0874 -6.6641 Q28.5639 -4.9219 29.2749 -4.3438 Q29.9858 -3.7656 30.9077 -3.7656 Q31.8296 -3.7656 32.5483 -4.3516 Q33.2671 -4.9375 33.6733 -6.4531 Q34.1889 -8.4062 34.1889 -13.0625 Q34.1889 -17.7188 33.7202 -19.4609 Q33.2514 -21.2031 32.5405 -21.7969 Q31.8296 -22.3906 30.9077 -22.3906 Z"/></g><g transform="translate(1796,842)" style="font-size:29.8667px; fill:rgb(38,38,38); text-rendering:geometricPrecision; image-rendering:optimizeQuality; color-rendering:optimizeQuality; font-family:'Arial'; stroke:rgb(38,38,38); color-interpolation:linearRGB; font-weight:bold;"><path style="stroke:none;" d="M1.3281 -5.5156 L5.4375 -5.9531 Q5.6094 -4.5625 6.4766 -3.75 Q7.3438 -2.9375 8.4688 -2.9375 Q9.75 -2.9375 10.6484 -3.9844 Q11.5469 -5.0312 11.5469 -7.1406 Q11.5469 -9.1094 10.6562 -10.1016 Q9.7656 -11.0938 8.3438 -11.0938 Q6.5781 -11.0938 5.1719 -9.5156 L1.8281 -10 L3.9375 -21.1875 L14.8281 -21.1875 L14.8281 -17.3281 L7.0625 -17.3281 L6.4219 -13.6875 Q7.7969 -14.375 9.2344 -14.375 Q11.9688 -14.375 13.875 -12.3828 Q15.7812 -10.3906 15.7812 -7.2031 Q15.7812 -4.5625 14.2344 -2.4688 Q12.1406 0.3594 8.4219 0.3594 Q5.4531 0.3594 3.5781 -1.2344 Q1.7031 -2.8281 1.3281 -5.5156 Z"/></g><g transform="translate(1141.5006,870.4667)" style="font-size:41.0667px; fill:rgb(38,38,38); text-rendering:geometricPrecision; image-rendering:optimizeQuality; color-rendering:optimizeQuality; font-family:'Arial'; stroke:rgb(38,38,38); color-interpolation:linearRGB; font-weight:bold;"><path style="stroke:none;" d="M-85.9844 38 L-85.9844 8.6562 L-65.8594 8.6562 L-65.8594 13.6094 L-80.0469 13.6094 L-80.0469 20.5625 L-67.7969 20.5625 L-67.7969 25.5312 L-80.0469 25.5312 L-80.0469 38 L-85.9844 38 ZM-55.5893 38 L-61.2143 38 L-61.2143 16.7344 L-55.9955 16.7344 L-55.9955 19.7656 Q-54.6518 17.625 -53.5815 16.9453 Q-52.5111 16.2656 -51.1518 16.2656 Q-49.2299 16.2656 -47.4486 17.3125 L-49.183 22.2188 Q-50.6049 21.2969 -51.8236 21.2969 Q-53.0111 21.2969 -53.8315 21.9531 Q-54.6518 22.6094 -55.1205 24.3125 Q-55.5893 26.0156 -55.5893 31.4375 L-55.5893 38 ZM-32.6875 31.2344 L-27.0781 32.1719 Q-28.1562 35.25 -30.4922 36.8672 Q-32.8281 38.4844 -36.3281 38.4844 Q-41.875 38.4844 -44.5312 34.8594 Q-46.6406 31.9531 -46.6406 27.5312 Q-46.6406 22.25 -43.875 19.2578 Q-41.1094 16.2656 -36.8906 16.2656 Q-32.1406 16.2656 -29.3984 19.3984 Q-26.6562 22.5312 -26.7812 28.9844 L-40.875 28.9844 Q-40.8125 31.5 -39.5078 32.8906 Q-38.2031 34.2812 -36.2656 34.2812 Q-34.9375 34.2812 -34.0391 33.5547 Q-33.1406 32.8281 -32.6875 31.2344 ZM-32.3594 25.5469 Q-32.4219 23.1094 -33.625 21.8359 Q-34.8281 20.5625 -36.5469 20.5625 Q-38.3906 20.5625 -39.5938 21.9062 Q-40.7969 23.25 -40.7656 25.5469 L-32.3594 25.5469 ZM-8.2567 46.0938 L-8.2567 35.3906 Q-9.3661 36.8125 -11.0067 37.6484 Q-12.6474 38.4844 -14.5536 38.4844 Q-18.1786 38.4844 -20.5224 35.75 Q-23.2724 32.5781 -23.2724 27.125 Q-23.2724 22 -20.6864 19.1328 Q-18.1005 16.2656 -14.2567 16.2656 Q-12.1317 16.2656 -10.5771 17.1641 Q-9.0224 18.0625 -7.8192 19.875 L-7.8192 16.7344 L-2.6317 16.7344 L-2.6317 46.0938 L-8.2567 46.0938 ZM-8.0849 27.1094 Q-8.0849 23.8438 -9.413 22.25 Q-10.7411 20.6562 -12.7411 20.6562 Q-14.788 20.6562 -16.163 22.2812 Q-17.538 23.9062 -17.538 27.4219 Q-17.538 30.9375 -16.2177 32.4844 Q-14.8974 34.0312 -12.9442 34.0312 Q-11.0067 34.0312 -9.5458 32.2891 Q-8.0849 30.5469 -8.0849 27.1094 ZM23.6562 46.625 L19.7968 46.625 Q16.7343 42 15.1328 37.0156 Q13.5312 32.0312 13.5312 27.375 Q13.5312 21.5781 15.5156 16.4219 Q17.2343 11.9375 19.875 8.1562 L23.7187 8.1562 Q20.9843 14.2188 19.9531 18.4688 Q18.9218 22.7188 18.9218 27.4844 Q18.9218 30.7656 19.5312 34.2109 Q20.1406 37.6562 21.2031 40.7656 Q21.9062 42.8125 23.6562 46.625 ZM28.0647 38 L28.0647 8.6562 L33.9866 8.6562 L33.9866 20.2031 L45.6116 20.2031 L45.6116 8.6562 L51.5335 8.6562 L51.5335 38 L45.6116 38 L45.6116 25.1719 L33.9866 25.1719 L33.9866 38 L28.0647 38 ZM55.4062 38 L55.4062 33.6094 L63.375 24.4688 Q65.3281 22.2188 66.2656 21.2812 Q65.2969 21.3438 63.6875 21.3594 L56.1875 21.4062 L56.1875 16.7344 L73.75 16.7344 L73.75 20.7188 L65.625 30.0938 L62.7656 33.1875 Q65.1094 33.0625 65.6719 33.0625 L74.375 33.0625 L74.375 38 L55.4062 38 ZM76.625 46.625 Q78.2969 43.0625 78.9766 41.1641 Q79.6562 39.2656 80.2344 36.7812 Q80.8125 34.2969 81.0938 32.0625 Q81.375 29.8281 81.375 27.4844 Q81.375 22.7188 80.3516 18.4688 Q79.3281 14.2188 76.5938 8.1562 L80.4219 8.1562 Q83.4375 12.4531 85.1094 17.2812 Q86.7812 22.1094 86.7812 27.0625 Q86.7812 31.25 85.4531 36.0312 Q83.9531 41.4062 80.5156 46.625 L76.625 46.625 Z"/></g><g style="fill:rgb(38,38,38); text-rendering:geometricPrecision; image-rendering:optimizeQuality; color-rendering:optimizeQuality; stroke-linejoin:round; stroke:rgb(38,38,38); color-interpolation:linearRGB; stroke-width:6.6667;"><line y2="144" style="fill:none;" x1="499" x2="499" y1="801"/><line y2="144" style="fill:none;" x1="1784" x2="1784" y1="801"/><line y2="801" style="fill:none;" x1="499" x2="511.85" y1="801"/><line y2="691.5" style="fill:none;" x1="499" x2="511.85" y1="691.5"/><line y2="582" style="fill:none;" x1="499" x2="511.85" y1="582"/><line y2="472.5" style="fill:none;" x1="499" x2="511.85" y1="472.5"/><line y2="363" style="fill:none;" x1="499" x2="511.85" y1="363"/><line y2="253.5" style="fill:none;" x1="499" x2="511.85" y1="253.5"/><line y2="144" style="fill:none;" x1="499" x2="511.85" y1="144"/><line y2="801" style="fill:none;" x1="1784" x2="1771.15" y1="801"/><line y2="691.5" style="fill:none;" x1="1784" x2="1771.15" y1="691.5"/><line y2="582" style="fill:none;" x1="1784" x2="1771.15" y1="582"/><line y2="472.5" style="fill:none;" x1="1784" x2="1771.15" y1="472.5"/><line y2="363" style="fill:none;" x1="1784" x2="1771.15" y1="363"/><line y2="253.5" style="fill:none;" x1="1784" x2="1771.15" y1="253.5"/><line y2="144" style="fill:none;" x1="1784" x2="1771.15" y1="144"/></g><g transform="translate(486.2,801)" style="font-size:37.3333px; fill:rgb(38,38,38); text-rendering:geometricPrecision; image-rendering:optimizeQuality; color-rendering:optimizeQuality; font-family:'Arial'; stroke:rgb(38,38,38); color-interpolation:linearRGB; font-weight:bold;"><path style="stroke:none;" d="M-51.9219 6.4375 L-51.9219 1.3594 L-41.9531 1.3594 L-41.9531 6.4375 L-51.9219 6.4375 ZM-22.809 -6.5 L-27.7153 -5.9531 Q-27.9028 -7.4688 -28.6606 -8.1953 Q-29.4184 -8.9219 -30.6215 -8.9219 Q-32.2309 -8.9219 -33.3403 -7.4766 Q-34.4496 -6.0312 -34.7465 -1.4531 Q-32.8559 -3.7031 -30.0278 -3.7031 Q-26.8559 -3.7031 -24.5825 -1.2812 Q-22.309 1.1406 -22.309 4.9688 Q-22.309 9.0312 -24.6996 11.4922 Q-27.0903 13.9531 -30.8246 13.9531 Q-34.8403 13.9531 -37.4184 10.8359 Q-39.9965 7.7188 -39.9965 0.625 Q-39.9965 -6.6562 -37.309 -9.875 Q-34.6215 -13.0938 -30.3246 -13.0938 Q-27.309 -13.0938 -25.3246 -11.4062 Q-23.3403 -9.7188 -22.809 -6.5 ZM-34.309 4.5781 Q-34.309 7.0469 -33.1684 8.3906 Q-32.0278 9.7344 -30.5746 9.7344 Q-29.1684 9.7344 -28.2231 8.6328 Q-27.2778 7.5312 -27.2778 5.0312 Q-27.2778 2.4375 -28.2934 1.2422 Q-29.309 0.0469 -30.8246 0.0469 Q-32.2934 0.0469 -33.3012 1.1875 Q-34.309 2.3281 -34.309 4.5781 ZM-10.667 -13.0938 Q-6.8232 -13.0938 -4.6513 -10.3438 Q-2.0732 -7.0938 -2.0732 0.4375 Q-2.0732 7.9531 -4.667 11.2344 Q-6.8232 13.9531 -10.667 13.9531 Q-14.542 13.9531 -16.9091 10.9766 Q-19.2763 8 -19.2763 0.3906 Q-19.2763 -7.0938 -16.667 -10.3906 Q-14.5107 -13.0938 -10.667 -13.0938 ZM-10.667 -8.8906 Q-11.5888 -8.8906 -12.3154 -8.2969 Q-13.042 -7.7031 -13.4326 -6.1875 Q-13.9638 -4.2188 -13.9638 0.4375 Q-13.9638 5.0938 -13.4873 6.8359 Q-13.0107 8.5781 -12.2998 9.1562 Q-11.5888 9.7344 -10.667 9.7344 Q-9.7451 9.7344 -9.0263 9.1484 Q-8.3076 8.5625 -7.9013 7.0469 Q-7.3857 5.0938 -7.3857 0.4375 Q-7.3857 -4.2188 -7.8545 -5.9609 Q-8.3232 -7.7031 -9.0341 -8.2969 Q-9.7451 -8.8906 -10.667 -8.8906 Z"/></g><g transform="translate(486.2,691.5)" style="font-size:37.3333px; fill:rgb(38,38,38); text-rendering:geometricPrecision; image-rendering:optimizeQuality; color-rendering:optimizeQuality; font-family:'Arial'; stroke:rgb(38,38,38); color-interpolation:linearRGB; font-weight:bold;"><path style="stroke:none;" d="M-51.9219 6.4375 L-51.9219 1.3594 L-41.9531 1.3594 L-41.9531 6.4375 L-51.9219 6.4375 ZM-39.934 6.6875 L-34.8715 6.1719 Q-34.6528 7.875 -33.5903 8.8828 Q-32.5278 9.8906 -31.1371 9.8906 Q-29.5434 9.8906 -28.4418 8.5938 Q-27.3403 7.2969 -27.3403 4.7031 Q-27.3403 2.2656 -28.434 1.0469 Q-29.5278 -0.1719 -31.2778 -0.1719 Q-33.4653 -0.1719 -35.1996 1.75 L-39.309 1.1562 L-36.7153 -12.625 L-23.2934 -12.625 L-23.2934 -7.875 L-32.8715 -7.875 L-33.6684 -3.375 Q-31.9653 -4.2188 -30.1996 -4.2188 Q-26.809 -4.2188 -24.4653 -1.7656 Q-22.1215 0.6875 -22.1215 4.6094 Q-22.1215 7.875 -24.0121 10.4531 Q-26.5903 13.9531 -31.184 13.9531 Q-34.8559 13.9531 -37.1684 11.9844 Q-39.4809 10.0156 -39.934 6.6875 ZM-10.667 -13.0938 Q-6.8232 -13.0938 -4.6513 -10.3438 Q-2.0732 -7.0938 -2.0732 0.4375 Q-2.0732 7.9531 -4.667 11.2344 Q-6.8232 13.9531 -10.667 13.9531 Q-14.542 13.9531 -16.9091 10.9766 Q-19.2763 8 -19.2763 0.3906 Q-19.2763 -7.0938 -16.667 -10.3906 Q-14.5107 -13.0938 -10.667 -13.0938 ZM-10.667 -8.8906 Q-11.5888 -8.8906 -12.3154 -8.2969 Q-13.042 -7.7031 -13.4326 -6.1875 Q-13.9638 -4.2188 -13.9638 0.4375 Q-13.9638 5.0938 -13.4873 6.8359 Q-13.0107 8.5781 -12.2998 9.1562 Q-11.5888 9.7344 -10.667 9.7344 Q-9.7451 9.7344 -9.0263 9.1484 Q-8.3076 8.5625 -7.9013 7.0469 Q-7.3857 5.0938 -7.3857 0.4375 Q-7.3857 -4.2188 -7.8545 -5.9609 Q-8.3232 -7.7031 -9.0341 -8.2969 Q-9.7451 -8.8906 -10.667 -8.8906 Z"/></g><g transform="translate(486.2,582)" style="font-size:37.3333px; fill:rgb(38,38,38); text-rendering:geometricPrecision; image-rendering:optimizeQuality; color-rendering:optimizeQuality; font-family:'Arial'; stroke:rgb(38,38,38); color-interpolation:linearRGB; font-weight:bold;"><path style="stroke:none;" d="M-51.9219 6.4375 L-51.9219 1.3594 L-41.9531 1.3594 L-41.9531 6.4375 L-51.9219 6.4375 ZM-30.0434 13.5 L-30.0434 8.1719 L-40.8871 8.1719 L-40.8871 3.7188 L-29.4028 -13.0938 L-25.1371 -13.0938 L-25.1371 3.7031 L-21.8403 3.7031 L-21.8403 8.1719 L-25.1371 8.1719 L-25.1371 13.5 L-30.0434 13.5 ZM-30.0434 3.7031 L-30.0434 -5.3438 L-36.1371 3.7031 L-30.0434 3.7031 ZM-10.667 -13.0938 Q-6.8232 -13.0938 -4.6513 -10.3438 Q-2.0732 -7.0938 -2.0732 0.4375 Q-2.0732 7.9531 -4.667 11.2344 Q-6.8232 13.9531 -10.667 13.9531 Q-14.542 13.9531 -16.9091 10.9766 Q-19.2763 8 -19.2763 0.3906 Q-19.2763 -7.0938 -16.667 -10.3906 Q-14.5107 -13.0938 -10.667 -13.0938 ZM-10.667 -8.8906 Q-11.5888 -8.8906 -12.3154 -8.2969 Q-13.042 -7.7031 -13.4326 -6.1875 Q-13.9638 -4.2188 -13.9638 0.4375 Q-13.9638 5.0938 -13.4873 6.8359 Q-13.0107 8.5781 -12.2998 9.1562 Q-11.5888 9.7344 -10.667 9.7344 Q-9.7451 9.7344 -9.0263 9.1484 Q-8.3076 8.5625 -7.9013 7.0469 Q-7.3857 5.0938 -7.3857 0.4375 Q-7.3857 -4.2188 -7.8545 -5.9609 Q-8.3232 -7.7031 -9.0341 -8.2969 Q-9.7451 -8.8906 -10.667 -8.8906 Z"/></g><g transform="translate(486.2,472.5)" style="font-size:37.3333px; fill:rgb(38,38,38); text-rendering:geometricPrecision; image-rendering:optimizeQuality; color-rendering:optimizeQuality; font-family:'Arial'; stroke:rgb(38,38,38); color-interpolation:linearRGB; font-weight:bold;"><path style="stroke:none;" d="M-51.9219 6.4375 L-51.9219 1.3594 L-41.9531 1.3594 L-41.9531 6.4375 L-51.9219 6.4375 ZM-40.184 6.4688 L-35.2621 5.875 Q-35.0278 7.75 -34.0043 8.7422 Q-32.9809 9.7344 -31.5121 9.7344 Q-29.934 9.7344 -28.8637 8.5469 Q-27.7934 7.3594 -27.7934 5.3281 Q-27.7934 3.4219 -28.8246 2.2969 Q-29.8559 1.1719 -31.3246 1.1719 Q-32.309 1.1719 -33.6684 1.5625 L-33.1059 -2.5781 Q-31.0434 -2.5312 -29.9575 -3.4766 Q-28.8715 -4.4219 -28.8715 -6 Q-28.8715 -7.3281 -29.6684 -8.125 Q-30.4653 -8.9219 -31.7778 -8.9219 Q-33.0903 -8.9219 -34.0043 -8.0156 Q-34.9184 -7.1094 -35.1215 -5.375 L-39.809 -6.1719 Q-39.309 -8.5781 -38.3246 -10.0156 Q-37.3403 -11.4531 -35.5825 -12.2734 Q-33.8246 -13.0938 -31.6371 -13.0938 Q-27.9028 -13.0938 -25.6371 -10.7031 Q-23.7778 -8.7656 -23.7778 -6.2969 Q-23.7778 -2.8125 -27.5903 -0.7344 Q-25.309 -0.25 -23.9496 1.4453 Q-22.5903 3.1406 -22.5903 5.5469 Q-22.5903 9.0312 -25.1371 11.4922 Q-27.684 13.9531 -31.4809 13.9531 Q-35.0746 13.9531 -37.4418 11.8828 Q-39.809 9.8125 -40.184 6.4688 ZM-10.667 -13.0938 Q-6.8232 -13.0938 -4.6513 -10.3438 Q-2.0732 -7.0938 -2.0732 0.4375 Q-2.0732 7.9531 -4.667 11.2344 Q-6.8232 13.9531 -10.667 13.9531 Q-14.542 13.9531 -16.9091 10.9766 Q-19.2763 8 -19.2763 0.3906 Q-19.2763 -7.0938 -16.667 -10.3906 Q-14.5107 -13.0938 -10.667 -13.0938 ZM-10.667 -8.8906 Q-11.5888 -8.8906 -12.3154 -8.2969 Q-13.042 -7.7031 -13.4326 -6.1875 Q-13.9638 -4.2188 -13.9638 0.4375 Q-13.9638 5.0938 -13.4873 6.8359 Q-13.0107 8.5781 -12.2998 9.1562 Q-11.5888 9.7344 -10.667 9.7344 Q-9.7451 9.7344 -9.0263 9.1484 Q-8.3076 8.5625 -7.9013 7.0469 Q-7.3857 5.0938 -7.3857 0.4375 Q-7.3857 -4.2188 -7.8545 -5.9609 Q-8.3232 -7.7031 -9.0341 -8.2969 Q-9.7451 -8.8906 -10.667 -8.8906 Z"/></g><g transform="translate(486.2,363)" style="font-size:37.3333px; fill:rgb(38,38,38); text-rendering:geometricPrecision; image-rendering:optimizeQuality; color-rendering:optimizeQuality; font-family:'Arial'; stroke:rgb(38,38,38); color-interpolation:linearRGB; font-weight:bold;"><path style="stroke:none;" d="M-51.9219 6.4375 L-51.9219 1.3594 L-41.9531 1.3594 L-41.9531 6.4375 L-51.9219 6.4375 ZM-22.8559 8.7812 L-22.8559 13.5 L-40.6528 13.5 Q-40.3715 10.8281 -38.9262 8.4297 Q-37.4809 6.0312 -33.2153 2.0781 Q-29.7778 -1.1094 -28.9965 -2.25 Q-27.9496 -3.8281 -27.9496 -5.3594 Q-27.9496 -7.0625 -28.8637 -7.9766 Q-29.7778 -8.8906 -31.3871 -8.8906 Q-32.9809 -8.8906 -33.9184 -7.9297 Q-34.8559 -6.9688 -34.9965 -4.75 L-40.059 -5.25 Q-39.6059 -9.4375 -37.2231 -11.2656 Q-34.8403 -13.0938 -31.2621 -13.0938 Q-27.3403 -13.0938 -25.0981 -10.9766 Q-22.8559 -8.8594 -22.8559 -5.7188 Q-22.8559 -3.9375 -23.4965 -2.3203 Q-24.1371 -0.7031 -25.5278 1.0625 Q-26.4496 2.25 -28.8559 4.4531 Q-31.2621 6.6562 -31.9028 7.375 Q-32.5434 8.0938 -32.934 8.7812 L-22.8559 8.7812 ZM-10.667 -13.0938 Q-6.8232 -13.0938 -4.6513 -10.3438 Q-2.0732 -7.0938 -2.0732 0.4375 Q-2.0732 7.9531 -4.667 11.2344 Q-6.8232 13.9531 -10.667 13.9531 Q-14.542 13.9531 -16.9091 10.9766 Q-19.2763 8 -19.2763 0.3906 Q-19.2763 -7.0938 -16.667 -10.3906 Q-14.5107 -13.0938 -10.667 -13.0938 ZM-10.667 -8.8906 Q-11.5888 -8.8906 -12.3154 -8.2969 Q-13.042 -7.7031 -13.4326 -6.1875 Q-13.9638 -4.2188 -13.9638 0.4375 Q-13.9638 5.0938 -13.4873 6.8359 Q-13.0107 8.5781 -12.2998 9.1562 Q-11.5888 9.7344 -10.667 9.7344 Q-9.7451 9.7344 -9.0263 9.1484 Q-8.3076 8.5625 -7.9013 7.0469 Q-7.3857 5.0938 -7.3857 0.4375 Q-7.3857 -4.2188 -7.8545 -5.9609 Q-8.3232 -7.7031 -9.0341 -8.2969 Q-9.7451 -8.8906 -10.667 -8.8906 Z"/></g><g transform="translate(486.2,253.5)" style="font-size:37.3333px; fill:rgb(38,38,38); text-rendering:geometricPrecision; image-rendering:optimizeQuality; color-rendering:optimizeQuality; font-family:'Arial'; stroke:rgb(38,38,38); color-interpolation:linearRGB; font-weight:bold;"><path style="stroke:none;" d="M-51.9219 6.4375 L-51.9219 1.3594 L-41.9531 1.3594 L-41.9531 6.4375 L-51.9219 6.4375 ZM-27.0121 13.5 L-32.0903 13.5 L-32.0903 -5.625 Q-34.8715 -3.0312 -38.6528 -1.7812 L-38.6528 -6.3906 Q-36.6528 -7.0469 -34.3246 -8.8594 Q-31.9965 -10.6719 -31.1371 -13.0938 L-27.0121 -13.0938 L-27.0121 13.5 ZM-10.667 -13.0938 Q-6.8232 -13.0938 -4.6513 -10.3438 Q-2.0732 -7.0938 -2.0732 0.4375 Q-2.0732 7.9531 -4.667 11.2344 Q-6.8232 13.9531 -10.667 13.9531 Q-14.542 13.9531 -16.9091 10.9766 Q-19.2763 8 -19.2763 0.3906 Q-19.2763 -7.0938 -16.667 -10.3906 Q-14.5107 -13.0938 -10.667 -13.0938 ZM-10.667 -8.8906 Q-11.5888 -8.8906 -12.3154 -8.2969 Q-13.042 -7.7031 -13.4326 -6.1875 Q-13.9638 -4.2188 -13.9638 0.4375 Q-13.9638 5.0938 -13.4873 6.8359 Q-13.0107 8.5781 -12.2998 9.1562 Q-11.5888 9.7344 -10.667 9.7344 Q-9.7451 9.7344 -9.0263 9.1484 Q-8.3076 8.5625 -7.9013 7.0469 Q-7.3857 5.0938 -7.3857 0.4375 Q-7.3857 -4.2188 -7.8545 -5.9609 Q-8.3232 -7.7031 -9.0341 -8.2969 Q-9.7451 -8.8906 -10.667 -8.8906 Z"/></g><g transform="translate(486.2,144)" style="font-size:37.3333px; fill:rgb(38,38,38); text-rendering:geometricPrecision; image-rendering:optimizeQuality; color-rendering:optimizeQuality; font-family:'Arial'; stroke:rgb(38,38,38); color-interpolation:linearRGB; font-weight:bold;"><path style="stroke:none;" d="M-10.8438 -13.0938 Q-7 -13.0938 -4.8281 -10.3438 Q-2.25 -7.0938 -2.25 0.4375 Q-2.25 7.9531 -4.8438 11.2344 Q-7 13.9531 -10.8438 13.9531 Q-14.7188 13.9531 -17.0859 10.9766 Q-19.4531 8 -19.4531 0.3906 Q-19.4531 -7.0938 -16.8438 -10.3906 Q-14.6875 -13.0938 -10.8438 -13.0938 ZM-10.8438 -8.8906 Q-11.7656 -8.8906 -12.4922 -8.2969 Q-13.2188 -7.7031 -13.6094 -6.1875 Q-14.1406 -4.2188 -14.1406 0.4375 Q-14.1406 5.0938 -13.6641 6.8359 Q-13.1875 8.5781 -12.4766 9.1562 Q-11.7656 9.7344 -10.8438 9.7344 Q-9.9219 9.7344 -9.2031 9.1484 Q-8.4844 8.5625 -8.0781 7.0469 Q-7.5625 5.0938 -7.5625 0.4375 Q-7.5625 -4.2188 -8.0312 -5.9609 Q-8.5 -7.7031 -9.2109 -8.2969 Q-9.9219 -8.8906 -10.8438 -8.8906 Z"/></g><g transform="translate(424.2,472.4997) rotate(-90)" style="font-size:41.0667px; fill:rgb(38,38,38); text-rendering:geometricPrecision; image-rendering:optimizeQuality; color-rendering:optimizeQuality; font-family:'Arial'; stroke:rgb(38,38,38); color-interpolation:linearRGB; font-weight:bold;"><path style="stroke:none;" d="M-146.5938 -9 L-146.5938 -38.3438 L-137.7344 -38.3438 L-132.4062 -18.3281 L-127.1406 -38.3438 L-118.25 -38.3438 L-118.25 -9 L-123.75 -9 L-123.75 -32.1094 L-129.5781 -9 L-135.2812 -9 L-141.0938 -32.1094 L-141.0938 -9 L-146.5938 -9 ZM-108.154 -23.7812 L-113.2477 -24.7031 Q-112.3884 -27.7812 -110.2868 -29.2578 Q-108.1852 -30.7344 -104.0446 -30.7344 Q-100.279 -30.7344 -98.4352 -29.8438 Q-96.5915 -28.9531 -95.8415 -27.5859 Q-95.0915 -26.2188 -95.0915 -22.5469 L-95.154 -15.9844 Q-95.154 -13.1875 -94.8806 -11.8516 Q-94.6071 -10.5156 -93.8727 -9 L-99.4352 -9 Q-99.654 -9.5625 -99.9821 -10.6562 Q-100.1227 -11.1562 -100.1852 -11.3281 Q-101.6227 -9.9219 -103.2634 -9.2188 Q-104.904 -8.5156 -106.7634 -8.5156 Q-110.0446 -8.5156 -111.9352 -10.2969 Q-113.8259 -12.0781 -113.8259 -14.8125 Q-113.8259 -16.6094 -112.9665 -18.0234 Q-112.1071 -19.4375 -110.5602 -20.1875 Q-109.0134 -20.9375 -106.0915 -21.5 Q-102.1384 -22.2344 -100.6227 -22.875 L-100.6227 -23.4375 Q-100.6227 -25.0625 -101.4196 -25.75 Q-102.2165 -26.4375 -104.4509 -26.4375 Q-105.9509 -26.4375 -106.7868 -25.8438 Q-107.6227 -25.25 -108.154 -23.7812 ZM-100.6227 -19.2031 Q-101.7009 -18.8438 -104.0446 -18.3438 Q-106.3884 -17.8438 -107.1071 -17.375 Q-108.2009 -16.5938 -108.2009 -15.3906 Q-108.2009 -14.2031 -107.3259 -13.3438 Q-106.4509 -12.4844 -105.0915 -12.4844 Q-103.5602 -12.4844 -102.1852 -13.4844 Q-101.154 -14.25 -100.8415 -15.3438 Q-100.6227 -16.0625 -100.6227 -18.0938 L-100.6227 -19.2031 ZM-90.0357 -7.5938 L-83.6139 -6.8125 Q-83.442 -5.7031 -82.8639 -5.2812 Q-82.067 -4.6719 -80.3482 -4.6719 Q-78.1451 -4.6719 -77.0357 -5.3438 Q-76.3014 -5.7812 -75.9264 -6.75 Q-75.6607 -7.4531 -75.6607 -9.3438 L-75.6607 -12.4375 Q-78.1764 -9 -82.0201 -9 Q-86.317 -9 -88.817 -12.625 Q-90.7701 -15.4844 -90.7701 -19.75 Q-90.7701 -25.0938 -88.1998 -27.9141 Q-85.6295 -30.7344 -81.8014 -30.7344 Q-77.8639 -30.7344 -75.3014 -27.2812 L-75.3014 -30.2656 L-70.0357 -30.2656 L-70.0357 -11.1875 Q-70.0357 -7.4219 -70.6529 -5.5547 Q-71.2701 -3.6875 -72.3951 -2.6328 Q-73.5201 -1.5781 -75.3951 -0.9766 Q-77.2701 -0.375 -80.1295 -0.375 Q-85.5357 -0.375 -87.7935 -2.2266 Q-90.0514 -4.0781 -90.0514 -6.9219 Q-90.0514 -7.2031 -90.0357 -7.5938 ZM-85.0045 -20.0781 Q-85.0045 -16.6875 -83.6998 -15.1172 Q-82.3951 -13.5469 -80.4732 -13.5469 Q-78.4107 -13.5469 -76.9889 -15.1562 Q-75.567 -16.7656 -75.567 -19.9375 Q-75.567 -23.2344 -76.9264 -24.8359 Q-78.2857 -26.4375 -80.3639 -26.4375 Q-82.3951 -26.4375 -83.6998 -24.8672 Q-85.0045 -23.2969 -85.0045 -20.0781 ZM-45.0938 -9 L-50.7188 -9 L-50.7188 -19.8438 Q-50.7188 -23.2969 -51.0781 -24.3047 Q-51.4375 -25.3125 -52.25 -25.875 Q-53.0625 -26.4375 -54.2031 -26.4375 Q-55.6562 -26.4375 -56.8203 -25.6328 Q-57.9844 -24.8281 -58.4141 -23.5078 Q-58.8438 -22.1875 -58.8438 -18.625 L-58.8438 -9 L-64.4688 -9 L-64.4688 -30.2656 L-59.25 -30.2656 L-59.25 -27.1406 Q-56.4688 -30.7344 -52.2344 -30.7344 Q-50.375 -30.7344 -48.8359 -30.0703 Q-47.2969 -29.4062 -46.5078 -28.3594 Q-45.7188 -27.3125 -45.4062 -25.9922 Q-45.0938 -24.6719 -45.0938 -22.2188 L-45.0938 -9 ZM-39.3549 -33.1406 L-39.3549 -38.3438 L-33.7299 -38.3438 L-33.7299 -33.1406 L-39.3549 -33.1406 ZM-39.3549 -9 L-39.3549 -30.2656 L-33.7299 -30.2656 L-33.7299 -9 L-39.3549 -9 ZM-18.1964 -30.2656 L-18.1964 -25.7812 L-22.0402 -25.7812 L-22.0402 -17.2031 Q-22.0402 -14.6094 -21.9308 -14.1797 Q-21.8214 -13.75 -21.4308 -13.4688 Q-21.0402 -13.1875 -20.4777 -13.1875 Q-19.6964 -13.1875 -18.212 -13.7188 L-17.7277 -9.3594 Q-19.6964 -8.5156 -22.1808 -8.5156 Q-23.6964 -8.5156 -24.9152 -9.0312 Q-26.1339 -9.5469 -26.7042 -10.3516 Q-27.2745 -11.1562 -27.4933 -12.5469 Q-27.6808 -13.5312 -27.6808 -16.5 L-27.6808 -25.7812 L-30.2589 -25.7812 L-30.2589 -30.2656 L-27.6808 -30.2656 L-27.6808 -34.4844 L-22.0402 -37.7656 L-22.0402 -30.2656 L-18.1964 -30.2656 ZM-0.2723 -9 L-0.2723 -12.1875 Q-1.4285 -10.4844 -3.327 -9.5 Q-5.2254 -8.5156 -7.3192 -8.5156 Q-9.4598 -8.5156 -11.1629 -9.4609 Q-12.866 -10.4062 -13.6238 -12.1094 Q-14.3817 -13.8125 -14.3817 -16.8125 L-14.3817 -30.2656 L-8.7567 -30.2656 L-8.7567 -20.4844 Q-8.7567 -16 -8.452 -14.9922 Q-8.1473 -13.9844 -7.327 -13.3906 Q-6.5067 -12.7969 -5.241 -12.7969 Q-3.8035 -12.7969 -2.6551 -13.5938 Q-1.5067 -14.3906 -1.0926 -15.5625 Q-0.6785 -16.7344 -0.6785 -21.2969 L-0.6785 -30.2656 L4.9465 -30.2656 L4.9465 -9 L-0.2723 -9 ZM30.3103 -9 L25.0916 -9 L25.0916 -12.125 Q23.7947 -10.2969 22.0213 -9.4062 Q20.2478 -8.5156 18.451 -8.5156 Q14.7791 -8.5156 12.1697 -11.4688 Q9.5603 -14.4219 9.5603 -19.7031 Q9.5603 -25.1094 12.0994 -27.9219 Q14.6385 -30.7344 18.5291 -30.7344 Q22.0916 -30.7344 24.6853 -27.7812 L24.6853 -38.3438 L30.3103 -38.3438 L30.3103 -9 ZM15.2947 -20.0938 Q15.2947 -16.6875 16.2478 -15.1719 Q17.6072 -12.9688 20.0447 -12.9688 Q21.9822 -12.9688 23.3494 -14.6172 Q24.7166 -16.2656 24.7166 -19.5469 Q24.7166 -23.2188 23.3885 -24.8281 Q22.0603 -26.4375 19.9978 -26.4375 Q17.9978 -26.4375 16.6463 -24.8438 Q15.2947 -23.25 15.2947 -20.0938 ZM48.2054 -15.7656 L53.8148 -14.8281 Q52.7367 -11.75 50.4008 -10.1328 Q48.0648 -8.5156 44.5648 -8.5156 Q39.0179 -8.5156 36.3617 -12.1406 Q34.2523 -15.0469 34.2523 -19.4688 Q34.2523 -24.75 37.0179 -27.7422 Q39.7836 -30.7344 44.0023 -30.7344 Q48.7523 -30.7344 51.4945 -27.6016 Q54.2367 -24.4688 54.1117 -18.0156 L40.0179 -18.0156 Q40.0804 -15.5 41.3851 -14.1094 Q42.6898 -12.7188 44.6273 -12.7188 Q45.9554 -12.7188 46.8539 -13.4453 Q47.7523 -14.1719 48.2054 -15.7656 ZM48.5336 -21.4531 Q48.4711 -23.8906 47.2679 -25.1641 Q46.0648 -26.4375 44.3461 -26.4375 Q42.5023 -26.4375 41.2992 -25.0938 Q40.0961 -23.75 40.1273 -21.4531 L48.5336 -21.4531 ZM79.4666 -0.375 L75.6072 -0.375 Q72.5447 -5 70.9431 -9.9844 Q69.3416 -14.9688 69.3416 -19.625 Q69.3416 -25.4219 71.3259 -30.5781 Q73.0447 -35.0625 75.6853 -38.8438 L79.5291 -38.8438 Q76.7947 -32.7812 75.7634 -28.5312 Q74.7322 -24.2812 74.7322 -19.5156 Q74.7322 -16.2344 75.3416 -12.7891 Q75.9509 -9.3438 77.0134 -6.2344 Q77.7166 -4.1875 79.4666 -0.375 ZM103.3126 -9 L98.0938 -9 L98.0938 -12.125 Q96.7969 -10.2969 95.0235 -9.4062 Q93.2501 -8.5156 91.4532 -8.5156 Q87.7813 -8.5156 85.1719 -11.4688 Q82.5626 -14.4219 82.5626 -19.7031 Q82.5626 -25.1094 85.1016 -27.9219 Q87.6407 -30.7344 91.5313 -30.7344 Q95.0938 -30.7344 97.6876 -27.7812 L97.6876 -38.3438 L103.3126 -38.3438 L103.3126 -9 ZM88.2969 -20.0938 Q88.2969 -16.6875 89.2501 -15.1719 Q90.6094 -12.9688 93.0469 -12.9688 Q94.9844 -12.9688 96.3516 -14.6172 Q97.7188 -16.2656 97.7188 -19.5469 Q97.7188 -23.2188 96.3907 -24.8281 Q95.0626 -26.4375 93.0001 -26.4375 Q91.0001 -26.4375 89.6485 -24.8438 Q88.2969 -23.25 88.2969 -20.0938 ZM108.9577 -38.3438 L120.692 -38.3438 Q124.1764 -38.3438 125.8874 -38.0547 Q127.5983 -37.7656 128.9499 -36.8438 Q130.3014 -35.9219 131.1999 -34.3906 Q132.0983 -32.8594 132.0983 -30.9688 Q132.0983 -28.9062 130.9889 -27.1797 Q129.8795 -25.4531 127.9733 -24.5938 Q130.6608 -23.8125 132.1061 -21.9297 Q133.5514 -20.0469 133.5514 -17.5156 Q133.5514 -15.5 132.6139 -13.6094 Q131.6764 -11.7188 130.067 -10.5859 Q128.4577 -9.4531 126.0983 -9.2031 Q124.6139 -9.0469 118.9577 -9 L108.9577 -9 L108.9577 -38.3438 ZM114.8795 -33.4688 L114.8795 -26.6719 L118.7702 -26.6719 Q122.2389 -26.6719 123.067 -26.7812 Q124.5983 -26.9531 125.4655 -27.8281 Q126.3327 -28.7031 126.3327 -30.125 Q126.3327 -31.4844 125.5827 -32.3359 Q124.8327 -33.1875 123.3483 -33.3594 Q122.4733 -33.4688 118.2858 -33.4688 L114.8795 -33.4688 ZM114.8795 -21.7969 L114.8795 -13.9375 L120.3795 -13.9375 Q123.5827 -13.9375 124.442 -14.125 Q125.7545 -14.3594 126.5905 -15.2969 Q127.4264 -16.2344 127.4264 -17.7812 Q127.4264 -19.1094 126.7858 -20.0312 Q126.1452 -20.9531 124.9264 -21.375 Q123.7077 -21.7969 119.6764 -21.7969 L114.8795 -21.7969 ZM136.9867 -0.375 Q138.6586 -3.9375 139.3383 -5.8359 Q140.0179 -7.7344 140.5961 -10.2188 Q141.1742 -12.7031 141.4554 -14.9375 Q141.7367 -17.1719 141.7367 -19.5156 Q141.7367 -24.2812 140.7133 -28.5312 Q139.6898 -32.7812 136.9554 -38.8438 L140.7836 -38.8438 Q143.7992 -34.5469 145.4711 -29.7188 Q147.1429 -24.8906 147.1429 -19.9375 Q147.1429 -15.75 145.8148 -10.9688 Q144.3148 -5.5938 140.8773 -0.375 L136.9867 -0.375 Z"/></g><g style="stroke-linecap:butt; fill:rgb(0,114,189); text-rendering:geometricPrecision; image-rendering:optimizeQuality; color-rendering:optimizeQuality; stroke-linejoin:round; stroke:rgb(0,114,189); color-interpolation:linearRGB; stroke-width:9.3333;"><path d="M499 161.342 L501.57 161.342 L504.14 161.3421 L506.71 161.3422 L509.28 161.3423 L511.85 161.3423 L514.42 161.3424 L516.99 161.3425 L519.56 161.3426 L522.13 161.3427 L524.7 161.3427 L527.27 161.3429 L529.84 161.3429 L532.41 161.3431 L534.98 161.3432 L537.55 161.3433 L540.12 161.3434 L542.69 161.3435 L545.26 161.3437 L547.83 161.3438 L550.4 161.344 L552.97 161.3441 L555.54 161.3443 L558.11 161.3445 L560.68 161.3446 L563.25 161.3448 L565.82 161.345 L568.39 161.3452 L570.96 161.3454 L573.53 161.3456 L576.1 161.3459 L578.67 161.3461 L581.24 161.3464 L583.81 161.3467 L586.38 161.3469 L588.95 161.3472 L591.52 161.3475 L594.09 161.3479 L596.66 161.3482 L599.23 161.3485 L601.8 161.3489 L604.37 161.3493 L606.94 161.3497 L609.51 161.3501 L612.08 161.3506 L614.65 161.351 L617.22 161.3516 L619.79 161.3521 L622.36 161.3526 L624.93 161.3532 L627.5 161.3537 L630.07 161.3543 L632.64 161.355 L635.21 161.3557 L637.78 161.3564 L640.35 161.3571 L642.92 161.3579 L645.49 161.3587 L648.06 161.3595 L650.63 161.3604 L653.2 161.3613 L655.77 161.3623 L658.34 161.3633 L660.91 161.3644 L663.48 161.3655 L666.05 161.3667 L668.62 161.3679 L671.19 161.3692 L673.76 161.3705 L676.33 161.372 L678.9 161.3734 L681.47 161.375 L684.04 161.3766 L686.61 161.3783 L689.18 161.3801 L691.75 161.3819 L694.32 161.3839 L696.89 161.3859 L699.46 161.388 L702.03 161.3902 L704.6 161.3926 L707.17 161.395 L709.74 161.3976 L712.31 161.4002 L714.88 161.403 L717.45 161.406 L720.02 161.4091 L722.59 161.4123 L725.16 161.4157 L727.73 161.4192 L730.3 161.4229 L732.87 161.4267 L735.44 161.4308 L738.01 161.435 L740.58 161.4395 L743.15 161.4441 L745.72 161.449 L748.29 161.4541 L750.86 161.4594 L753.43 161.465 L756 161.4709 L758.57 161.477 L761.14 161.4834 L763.71 161.4901 L766.28 161.4972 L768.85 161.5045 L771.42 161.5123 L773.99 161.5203 L776.56 161.5287 L779.13 161.5376 L781.7 161.5469 L784.27 161.5566 L786.84 161.5667 L789.41 161.5773 L791.98 161.5885 L794.55 161.6001 L797.12 161.6123 L799.69 161.6251 L802.26 161.6384 L804.83 161.6524 L807.4 161.6671 L809.97 161.6824 L812.54 161.6984 L815.11 161.7152 L817.68 161.7328 L820.25 161.7512 L822.82 161.7704 L825.39 161.7906 L827.96 161.8117 L830.53 161.8338 L833.1 161.8569 L835.67 161.8811 L838.24 161.9064 L840.81 161.9329 L843.38 161.9606 L845.95 161.9897 L848.52 162.02 L851.09 162.0518 L853.66 162.0851 L856.23 162.1199 L858.8 162.1563 L861.37 162.1944 L863.94 162.2342 L866.51 162.2759 L869.08 162.3196 L871.65 162.3652 L874.22 162.4129 L876.79 162.4629 L879.36 162.5151 L881.93 162.5697 L884.5 162.6269 L887.07 162.6866 L889.64 162.7492 L892.21 162.8145 L894.78 162.8829 L897.35 162.9543 L899.92 163.0291 L902.49 163.1071 L905.06 163.1888 L907.63 163.2742 L910.2 163.3634 L912.77 163.4566 L915.34 163.554 L917.91 163.6559 L920.48 163.7622 L923.05 163.8734 L925.62 163.9895 L928.19 164.1107 L930.76 164.2374 L933.33 164.3696 L935.9 164.5078 L938.47 164.6519 L941.04 164.8024 L943.61 164.9595 L946.18 165.1234 L948.75 165.2945 L951.32 165.473 L953.89 165.6591 L956.46 165.8533 L959.03 166.0558 L961.6 166.2668 L964.17 166.4869 L966.74 166.7162 L969.31 166.9552 L971.88 167.2041 L974.45 167.4633 L977.02 167.7333 L979.59 168.0144 L982.16 168.3069 L984.73 168.6114 L987.3 168.928 L989.87 169.2574 L992.44 169.5999 L995.01 169.9558 L997.58 170.3258 L1000.15 170.7101 L1002.72 171.1092 L1005.29 171.5235 L1007.86 171.9536 L1010.43 172.3998 L1013 172.8625 L1015.57 173.3423 L1018.14 173.8396 L1020.71 174.3548 L1023.28 174.8884 L1025.85 175.4408 L1028.42 176.0124 L1030.99 176.6037 L1033.5601 177.215 L1036.13 177.8469 L1038.7 178.4996 L1041.27 179.1737 L1043.84 179.8694 L1046.41 180.5872 L1048.98 181.3274 L1051.55 182.0903 L1054.12 182.8762 L1056.6899 183.6855 L1059.26 184.5184 L1061.83 185.3753 L1064.4 186.2562 L1066.97 187.1615 L1069.54 188.0914 L1072.11 189.046 L1074.6801 190.0254 L1077.25 191.0299 L1079.8199 192.0594 L1082.39 193.1141 L1084.96 194.194 L1087.53 195.299 L1090.1 196.4293 L1092.67 197.5848 L1095.24 198.7653 L1097.8099 199.9708 L1100.38 201.2013 L1102.95 202.4565 L1105.52 203.7363 L1108.09 205.0405 L1110.66 206.3688 L1113.23 207.7211 L1115.7999 209.0971 L1118.37 210.4965 L1120.9399 211.919 L1123.51 213.3643 L1126.08 214.8321 L1128.65 216.322 L1131.22 217.8336 L1133.79 219.3666 L1136.36 220.9206 L1138.9301 222.4952 L1141.5 224.0899 L1144.0699 225.7044 L1146.64 227.3382 L1149.21 228.9909 L1151.78 230.6621 L1154.35 232.3512 L1156.92 234.058 L1159.49 235.7818 L1162.0599 237.5224 L1164.63 239.2791 L1167.2 241.0516 L1169.77 242.8395 L1172.34 244.6423 L1174.91 246.4595 L1177.48 248.2908 L1180.0499 250.1356 L1182.62 251.9937 L1185.1899 253.8645 L1187.76 255.7476 L1190.33 257.6427 L1192.9 259.5494 L1195.47 261.4673 L1198.04 263.3958 L1200.61 265.3349 L1203.1799 267.284 L1205.75 269.2427 L1208.3199 271.2109 L1210.89 273.188 L1213.46 275.1739 L1216.03 277.1681 L1218.6 279.1703 L1221.1699 281.1804 L1223.74 283.1978 L1226.3099 285.2225 L1228.88 287.254 L1231.45 289.2922 L1234.02 291.3368 L1236.59 293.3875 L1239.1599 295.4441 L1241.73 297.5063 L1244.2999 299.574 L1246.87 301.6469 L1249.4399 303.7248 L1252.01 305.8075 L1254.58 307.8948 L1257.15 309.9865 L1259.72 312.0824 L1262.2899 314.1824 L1264.86 316.2863 L1267.4299 318.3939 L1270 320.5051 L1272.5699 322.6198 L1275.14 324.7376 L1277.71 326.8587 L1280.28 328.9827 L1282.85 331.1096 L1285.42 333.2393 L1287.99 335.3717 L1290.5599 337.5065 L1293.13 339.6438 L1295.7 341.7834 L1298.27 343.9253 L1300.84 346.0692 L1303.41 348.2152 L1305.98 350.3631 L1308.55 352.5129 L1311.12 354.6645 L1313.6901 356.8177 L1316.26 358.9726 L1318.83 361.1291 L1321.4 363.287 L1323.97 365.4463 L1326.54 367.6071 L1329.11 369.7691 L1331.6801 371.9323 L1334.25 374.0968 L1336.8201 376.2624 L1339.39 378.429 L1341.9601 380.5968 L1344.53 382.7655 L1347.1 384.9351 L1349.67 387.1057 L1352.24 389.2771 L1354.8101 391.4494 L1357.38 393.6224 L1359.9501 395.7962 L1362.52 397.9708 L1365.0901 400.146 L1367.66 402.3219 L1370.23 404.4984 L1372.8 406.6755 L1375.37 408.8532 L1377.9401 411.0314 L1380.51 413.2102 L1383.0801 415.3895 L1385.65 417.5692 L1388.22 419.7495 L1390.79 421.9301 L1393.36 424.1112 L1395.9301 426.2927 L1398.5 428.4745 L1401.0701 430.6568 L1403.64 432.8393 L1406.21 435.0222 L1408.78 437.2054 L1411.35 439.389 L1413.92 441.5728 L1416.49 443.7569 L1419.0601 445.9413 L1421.63 448.1259 L1424.2001 450.3107 L1426.77 452.4958 L1429.34 454.6811 L1431.91 456.8666 L1434.48 459.0523 L1437.05 461.2383 L1439.62 463.4243 L1442.1901 465.6106 L1444.76 467.7971 L1447.33 469.9836 L1449.9 472.1704 L1452.47 474.3573 L1455.04 476.5443 L1457.61 478.7315 L1460.1801 480.9188 L1462.75 483.1062 L1465.3199 485.2938 L1467.89 487.4814 L1470.46 489.6692 L1473.03 491.857 L1475.6 494.045 L1478.17 496.233 L1480.74 498.4211 L1483.3099 500.6093 L1485.88 502.7976 L1488.45 504.986 L1491.02 507.1744 L1493.59 509.3629 L1496.16 511.5515 L1498.73 513.7402 L1501.2999 515.9289 L1503.87 518.1176 L1506.4399 520.3065 L1509.01 522.4953 L1511.58 524.6843 L1514.15 526.8732 L1516.72 529.0623 L1519.29 531.2513 L1521.86 533.4404 L1524.4299 535.6296 L1527 537.8187 L1529.5699 540.0079 L1532.14 542.1972 L1534.71 544.3865 L1537.28 546.5758 L1539.85 548.7652 L1542.4199 550.9545 L1544.99 553.144 L1547.5599 555.3334 L1550.13 557.5229 L1552.7 559.7123 L1555.27 561.9019 L1557.84 564.0914 L1560.4099 566.2809 L1562.98 568.4705 L1565.5499 570.6601 L1568.12 572.8497 L1570.6899 575.0393 L1573.26 577.2289 L1575.83 579.4186 L1578.4 581.6083 L1580.97 583.798 L1583.5399 585.9877 L1586.11 588.1774 L1588.6799 590.3671 L1591.25 592.5569 L1593.8199 594.7466 L1596.39 596.9364 L1598.96 599.1262 L1601.53 601.3159 L1604.1 603.5057 L1606.67 605.6956 L1609.24 607.8854 L1611.8099 610.0752 L1614.38 612.265 L1616.95 614.4548 L1619.52 616.6447 L1622.09 618.8345 L1624.66 621.0244 L1627.23 623.2143 L1629.8 625.4041 L1632.37 627.594 L1634.9401 629.7839 L1637.51 631.9738 L1640.08 634.1637 L1642.65 636.3536 L1645.22 638.5435 L1647.79 640.7334 L1650.36 642.9233 L1652.9301 645.1132 L1655.5 647.3031 L1658.0701 649.493 L1660.64 651.683 L1663.2101 653.8729 L1665.78 656.0629 L1668.35 658.2527 L1670.92 660.4427 L1673.49 662.6326 L1676.0601 664.8226 L1678.63 667.0125 L1681.2001 669.2025 L1683.77 671.3925 L1686.3401 673.5824 L1688.91 675.7723 L1691.48 677.9623 L1694.05 680.1523 L1696.62 682.3422 L1699.1901 684.5322 L1701.76 686.7222 L1704.3301 688.9121 L1706.9 691.1021 L1709.47 693.2921 L1712.04 695.482 L1714.61 697.672 L1717.1801 699.8619 L1719.75 702.0519 L1722.3201 704.2419 L1724.89 706.4319 L1727.46 708.6219 L1730.03 710.8118 L1732.6 713.0018 L1735.17 715.1918 L1737.74 717.3818 L1740.3101 719.5718 L1742.88 721.7618 L1745.4501 723.9517 L1748.02 726.1417 L1750.59 728.3317 L1753.16 730.5217 L1755.73 732.7117 L1758.3 734.9017 L1760.87 737.0917 L1763.4401 739.2816 L1766.01 741.4716 L1768.58 743.6616 L1771.15 745.8516 L1773.72 748.0416 L1776.29 750.2316 L1778.86 752.4216 L1781.4301 754.6116 L1784 756.8016" style="fill:none; fill-rule:evenodd;"/></g><g style="fill:rgb(250,250,255); text-rendering:optimizeSpeed; color-rendering:optimizeSpeed; image-rendering:optimizeSpeed; shape-rendering:crispEdges; stroke:rgb(250,250,255); color-interpolation:sRGB;"><path style="stroke:none;" d="M1272.6666 228.8551 L1272.6666 313.1551 L1272.6766 313.4614 L1272.7067 313.7664 L1272.7566 314.0688 L1272.8262 314.3672 L1272.9152 314.6605 L1273.0231 314.9474 L1273.1497 315.2265 L1273.2941 315.4968 L1273.4559 315.757 L1273.6344 316.0062 L1273.8289 316.2431 L1274.0383 316.4667 L1274.2621 316.6762 L1274.4989 316.8707 L1274.748 317.0492 L1275.0083 317.211 L1275.2786 317.3555 L1275.5577 317.482 L1275.8446 317.5899 L1276.1378 317.6789 L1276.4363 317.7485 L1276.7386 317.7984 L1277.0437 317.8284 L1277.35 317.8384 L1426.65 317.8384 L1426.9563 317.8284 L1427.2612 317.7984 L1427.5636 317.7485 L1427.8621 317.6789 L1428.1554 317.5899 L1428.4421 317.482 L1428.7213 317.3555 L1428.9916 317.211 L1429.2518 317.0492 L1429.501 316.8707 L1429.7379 316.6762 L1429.9615 316.4667 L1430.171 316.2431 L1430.3655 316.0062 L1430.5441 315.757 L1430.7058 315.4968 L1430.8503 315.2265 L1430.9768 314.9474 L1431.0847 314.6605 L1431.1737 314.3672 L1431.2433 314.0688 L1431.2932 313.7664 L1431.3232 313.4614 L1431.3333 313.1551 L1431.3333 228.8551 L1431.3232 228.5488 L1431.2932 228.2438 L1431.2433 227.9415 L1431.1737 227.643 L1431.0847 227.3497 L1430.9768 227.0629 L1430.8503 226.7837 L1430.7058 226.5135 L1430.5441 226.2532 L1430.3655 226.0041 L1430.171 225.7672 L1429.9615 225.5435 L1429.7379 225.334 L1429.501 225.1396 L1429.2518 224.9611 L1428.9916 224.7992 L1428.7213 224.6548 L1428.4421 224.5283 L1428.1554 224.4203 L1427.8621 224.3314 L1427.5636 224.2618 L1427.2612 224.2119 L1426.9563 224.1818 L1426.65 224.1718 L1277.35 224.1718 L1277.0437 224.1818 L1276.7386 224.2119 L1276.4363 224.2618 L1276.1378 224.3314 L1275.8446 224.4203 L1275.5577 224.5283 L1275.2786 224.6548 L1275.0083 224.7992 L1274.748 224.9611 L1274.4989 225.1396 L1274.2621 225.334 L1274.0383 225.5435 L1273.8289 225.7672 L1273.6344 226.0041 L1273.4559 226.2532 L1273.2941 226.5135 L1273.1497 226.7837 L1273.0231 227.0629 L1272.9152 227.3497 L1272.8262 227.643 L1272.7566 227.9415 L1272.7067 228.2438 L1272.6766 228.5488 Z"/></g><g style="stroke-linecap:butt; fill:rgb(166,166,166); text-rendering:geometricPrecision; image-rendering:optimizeQuality; color-rendering:optimizeQuality; stroke-linejoin:round; stroke:rgb(166,166,166); color-interpolation:linearRGB; stroke-width:1.3333;"><path d="M1272.6666 313.1551 L1272.6766 313.4614 L1272.7067 313.7664 L1272.7566 314.0688 L1272.8262 314.3672 L1272.9152 314.6605 L1273.0231 314.9474 L1273.1497 315.2265 L1273.2941 315.4968 L1273.4559 315.757 L1273.6344 316.0062 L1273.8289 316.2431 L1274.0383 316.4667 L1274.2621 316.6762 L1274.4989 316.8707 L1274.748 317.0492 L1275.0083 317.211 L1275.2786 317.3555 L1275.5577 317.482 L1275.8446 317.5899 L1276.1378 317.6789 L1276.4363 317.7485 L1276.7386 317.7984 L1277.0437 317.8284 L1277.35 317.8384 L1426.65 317.8384 L1426.9563 317.8284 L1427.2612 317.7984 L1427.5636 317.7485 L1427.8621 317.6789 L1428.1554 317.5899 L1428.4421 317.482 L1428.7213 317.3555 L1428.9916 317.211 L1429.2518 317.0492 L1429.501 316.8707 L1429.7379 316.6762 L1429.9615 316.4667 L1430.171 316.2431 L1430.3655 316.0062 L1430.5441 315.757 L1430.7058 315.4968 L1430.8503 315.2265 L1430.9768 314.9474 L1431.0847 314.6605 L1431.1737 314.3672 L1431.2433 314.0688 L1431.2932 313.7664 L1431.3232 313.4614 L1431.3333 313.1551 L1431.3333 228.8551 L1431.3232 228.5488 L1431.2932 228.2438 L1431.2433 227.9415 L1431.1737 227.643 L1431.0847 227.3497 L1430.9768 227.0629 L1430.8503 226.7837 L1430.7058 226.5135 L1430.5441 226.2532 L1430.3655 226.0041 L1430.171 225.7672 L1429.9615 225.5435 L1429.7379 225.334 L1429.501 225.1396 L1429.2518 224.9611 L1428.9916 224.7992 L1428.7213 224.6548 L1428.4421 224.5283 L1428.1554 224.4203 L1427.8621 224.3314 L1427.5636 224.2618 L1427.2612 224.2119 L1426.9563 224.1818 L1426.65 224.1718 L1277.35 224.1718 L1277.0437 224.1818 L1276.7386 224.2119 L1276.4363 224.2618 L1276.1378 224.3314 L1275.8446 224.4203 L1275.5577 224.5283 L1275.2786 224.6548 L1275.0083 224.7992 L1274.748 224.9611 L1274.4989 225.1396 L1274.2621 225.334 L1274.0383 225.5435 L1273.8289 225.7672 L1273.6344 226.0041 L1273.4559 226.2532 L1273.2941 226.5135 L1273.1497 226.7837 L1273.0231 227.0629 L1272.9152 227.3497 L1272.8262 227.643 L1272.7566 227.9415 L1272.7067 228.2438 L1272.6766 228.5488 L1272.6666 228.8551 Z" style="fill:none; fill-rule:evenodd;"/></g><g transform="translate(1286,265)" style="font-size:26.6667px; fill:rgb(64,64,64); text-rendering:geometricPrecision; color-rendering:optimizeQuality; image-rendering:optimizeQuality; stroke:rgb(64,64,64); color-interpolation:linearRGB;"><path style="stroke:none;" d="M0.125 0 L7.5938 -10.0781 L1 -19.3281 L4.0469 -19.3281 L7.5469 -14.375 Q8.6562 -12.8281 9.1094 -12 Q9.75 -13.0469 10.6406 -14.2031 L14.5312 -19.3281 L17.3125 -19.3281 L10.5156 -10.2188 L17.8438 0 L14.6719 0 L9.8125 -6.8906 Q9.4062 -7.4844 8.9688 -8.1875 Q8.3125 -7.125 8.0469 -6.7344 L3.1875 0 L0.125 0 Z"/></g><g transform="translate(1312,265)" style="font-size:26.6667px; fill:rgb(0,153,255); text-rendering:geometricPrecision; image-rendering:optimizeQuality; color-rendering:optimizeQuality; stroke:rgb(0,153,255); color-interpolation:linearRGB; font-weight:bold;"><path style="stroke:none;" d="M10.625 0 L6.9219 0 L6.9219 -13.9688 Q4.8906 -12.0625 2.1406 -11.1562 L2.1406 -14.5156 Q3.5938 -14.9844 5.2891 -16.3125 Q6.9844 -17.6406 7.625 -19.4062 L10.625 -19.4062 L10.625 0 ZM22.2312 -19.4062 Q25.0437 -19.4062 26.6218 -17.4062 Q28.5124 -15.0312 28.5124 -9.5312 Q28.5124 -4.0469 26.6062 -1.6406 Q25.0437 0.3281 22.2312 0.3281 Q19.4187 0.3281 17.6921 -1.8438 Q15.9656 -4.0156 15.9656 -9.5781 Q15.9656 -15.0312 17.8562 -17.4219 Q19.4187 -19.4062 22.2312 -19.4062 ZM22.2312 -16.3281 Q21.5593 -16.3281 21.0359 -15.9062 Q20.5124 -15.4844 20.2156 -14.375 Q19.8406 -12.9375 19.8406 -9.5312 Q19.8406 -6.125 20.1843 -4.8594 Q20.5281 -3.5938 21.0437 -3.1719 Q21.5593 -2.75 22.2312 -2.75 Q22.9031 -2.75 23.4343 -3.1719 Q23.9656 -3.5938 24.2468 -4.7031 Q24.6374 -6.125 24.6374 -9.5312 Q24.6374 -12.9375 24.2937 -14.2109 Q23.9499 -15.4844 23.4265 -15.9062 Q22.9031 -16.3281 22.2312 -16.3281 ZM37.0561 -19.4062 Q39.8686 -19.4062 41.4467 -17.4062 Q43.3374 -15.0312 43.3374 -9.5312 Q43.3374 -4.0469 41.4311 -1.6406 Q39.8686 0.3281 37.0561 0.3281 Q34.2436 0.3281 32.5171 -1.8438 Q30.7905 -4.0156 30.7905 -9.5781 Q30.7905 -15.0312 32.6811 -17.4219 Q34.2436 -19.4062 37.0561 -19.4062 ZM37.0561 -16.3281 Q36.3842 -16.3281 35.8608 -15.9062 Q35.3374 -15.4844 35.0405 -14.375 Q34.6655 -12.9375 34.6655 -9.5312 Q34.6655 -6.125 35.0092 -4.8594 Q35.353 -3.5938 35.8686 -3.1719 Q36.3842 -2.75 37.0561 -2.75 Q37.728 -2.75 38.2592 -3.1719 Q38.7905 -3.5938 39.0717 -4.7031 Q39.4624 -6.125 39.4624 -9.5312 Q39.4624 -12.9375 39.1186 -14.2109 Q38.7749 -15.4844 38.2514 -15.9062 Q37.728 -16.3281 37.0561 -16.3281 ZM51.8811 -19.4062 Q54.6936 -19.4062 56.2717 -17.4062 Q58.1623 -15.0312 58.1623 -9.5312 Q58.1623 -4.0469 56.2561 -1.6406 Q54.6936 0.3281 51.8811 0.3281 Q49.0686 0.3281 47.342 -1.8438 Q45.6154 -4.0156 45.6154 -9.5781 Q45.6154 -15.0312 47.5061 -17.4219 Q49.0686 -19.4062 51.8811 -19.4062 ZM51.8811 -16.3281 Q51.2092 -16.3281 50.6857 -15.9062 Q50.1623 -15.4844 49.8654 -14.375 Q49.4904 -12.9375 49.4904 -9.5312 Q49.4904 -6.125 49.8342 -4.8594 Q50.1779 -3.5938 50.6936 -3.1719 Q51.2092 -2.75 51.8811 -2.75 Q52.5529 -2.75 53.0842 -3.1719 Q53.6154 -3.5938 53.8967 -4.7031 Q54.2873 -6.125 54.2873 -9.5312 Q54.2873 -12.9375 53.9436 -14.2109 Q53.5998 -15.4844 53.0764 -15.9062 Q52.5529 -16.3281 51.8811 -16.3281 Z"/></g><g transform="translate(1286,299)" style="font-size:26.6667px; fill:rgb(64,64,64); text-rendering:geometricPrecision; color-rendering:optimizeQuality; image-rendering:optimizeQuality; stroke:rgb(64,64,64); color-interpolation:linearRGB;"><path style="stroke:none;" d="M7.5312 0 L7.5312 -8.1875 L0.0781 -19.3281 L3.1875 -19.3281 L7 -13.5 Q8.0625 -11.8594 8.9688 -10.2344 Q9.8281 -11.75 11.0781 -13.6406 L14.8125 -19.3281 L17.7969 -19.3281 L10.0781 -8.1875 L10.0781 0 L7.5312 0 Z"/></g><g transform="translate(1312,299)" style="font-size:26.6667px; fill:rgb(0,153,255); text-rendering:geometricPrecision; image-rendering:optimizeQuality; color-rendering:optimizeQuality; stroke:rgb(0,153,255); color-interpolation:linearRGB; font-weight:bold;"><path style="stroke:none;" d="M1.5156 -5.1562 L1.5156 -8.8594 L8.7969 -8.8594 L8.7969 -5.1562 L1.5156 -5.1562 ZM19.5017 0 L15.7986 0 L15.7986 -13.9688 Q13.7674 -12.0625 11.0174 -11.1562 L11.0174 -14.5156 Q12.4705 -14.9844 14.1658 -16.3125 Q15.8611 -17.6406 16.5017 -19.4062 L19.5017 -19.4062 L19.5017 0 ZM37.4048 -14.5938 L33.8111 -14.2031 Q33.6861 -15.3125 33.1314 -15.8359 Q32.5767 -16.3594 31.6861 -16.3594 Q30.5142 -16.3594 29.7017 -15.3047 Q28.8892 -14.25 28.6861 -10.9219 Q30.0767 -12.5469 32.1236 -12.5469 Q34.4517 -12.5469 36.1001 -10.7812 Q37.7486 -9.0156 37.7486 -6.2188 Q37.7486 -3.25 36.0142 -1.4609 Q34.2798 0.3281 31.5454 0.3281 Q28.6236 0.3281 26.7329 -1.9453 Q24.8423 -4.2188 24.8423 -9.4062 Q24.8423 -14.7188 26.8111 -17.0625 Q28.7798 -19.4062 31.9204 -19.4062 Q34.1236 -19.4062 35.5611 -18.1719 Q36.9986 -16.9375 37.4048 -14.5938 ZM28.9986 -6.5156 Q28.9986 -4.7031 29.8345 -3.7266 Q30.6704 -2.75 31.7329 -2.75 Q32.7642 -2.75 33.4439 -3.5469 Q34.1236 -4.3438 34.1236 -6.1875 Q34.1236 -8.0625 33.3892 -8.9453 Q32.6548 -9.8281 31.5454 -9.8281 Q30.4829 -9.8281 29.7407 -8.9844 Q28.9986 -8.1406 28.9986 -6.5156 ZM40.4641 0 L40.4641 -3.7031 L44.1672 -3.7031 L44.1672 0 L40.4641 0 ZM56.5576 0 L52.8544 0 L52.8544 -13.9688 Q50.8232 -12.0625 48.0732 -11.1562 L48.0732 -14.5156 Q49.5263 -14.9844 51.2216 -16.3125 Q52.9169 -17.6406 53.5576 -19.4062 L56.5576 -19.4062 L56.5576 0 ZM71.3825 0 L67.6794 0 L67.6794 -13.9688 Q65.6481 -12.0625 62.8981 -11.1562 L62.8981 -14.5156 Q64.3513 -14.9844 66.0466 -16.3125 Q67.7419 -17.6406 68.3825 -19.4062 L71.3825 -19.4062 L71.3825 0 ZM76.8012 -4.4688 L80.3949 -4.8594 Q80.5199 -3.7656 81.0746 -3.2422 Q81.6293 -2.7188 82.5512 -2.7188 Q83.6918 -2.7188 84.4965 -3.7734 Q85.3012 -4.8281 85.5199 -8.1406 Q84.1293 -6.5312 82.0356 -6.5312 Q79.7543 -6.5312 78.0981 -8.2891 Q76.4418 -10.0469 76.4418 -12.875 Q76.4418 -15.8125 78.184 -17.6094 Q79.9262 -19.4062 82.6293 -19.4062 Q85.5824 -19.4062 87.4653 -17.1328 Q89.3481 -14.8594 89.3481 -9.6562 Q89.3481 -4.3438 87.3793 -2 Q85.4106 0.3438 82.2699 0.3438 Q80.0043 0.3438 78.6059 -0.8594 Q77.2074 -2.0625 76.8012 -4.4688 ZM85.1918 -12.5625 Q85.1918 -14.3594 84.3715 -15.3438 Q83.5512 -16.3281 82.4574 -16.3281 Q81.4418 -16.3281 80.7621 -15.5234 Q80.0824 -14.7188 80.0824 -12.875 Q80.0824 -11 80.8168 -10.1172 Q81.5512 -9.2344 82.6606 -9.2344 Q83.7231 -9.2344 84.4574 -10.0781 Q85.1918 -10.9219 85.1918 -12.5625 ZM104.0636 -3.4375 L104.0636 0 L91.0793 0 Q91.298 -1.9531 92.3527 -3.6953 Q93.4074 -5.4375 96.5168 -8.3281 Q99.0168 -10.6719 99.5793 -11.5 Q100.3449 -12.6406 100.3449 -13.7656 Q100.3449 -15 99.6808 -15.6641 Q99.0168 -16.3281 97.8449 -16.3281 Q96.6886 -16.3281 96.0011 -15.6328 Q95.3136 -14.9375 95.2043 -13.3125 L91.5168 -13.6875 Q91.8449 -16.75 93.5871 -18.0781 Q95.3293 -19.4062 97.9386 -19.4062 Q100.798 -19.4062 102.4308 -17.8672 Q104.0636 -16.3281 104.0636 -14.0312 Q104.0636 -12.7188 103.5949 -11.5391 Q103.1261 -10.3594 102.1105 -9.0781 Q101.4386 -8.2188 99.6886 -6.6094 Q97.9386 -5 97.4699 -4.4688 Q97.0011 -3.9375 96.7043 -3.4375 L104.0636 -3.4375 Z"/></g><g transform="translate(1270,320.5051)" style="fill:rgb(38,38,38); text-rendering:geometricPrecision; color-rendering:optimizeQuality; image-rendering:optimizeQuality; color-interpolation:linearRGB; stroke:rgb(38,38,38);"><circle r="5.3333" style="stroke:none;" cx="0" cy="0"/></g><g transform="translate(1270,320.5051)" style="stroke-linecap:butt; fill:rgb(255,255,220); text-rendering:geometricPrecision; image-rendering:optimizeQuality; color-rendering:optimizeQuality; stroke-linejoin:round; stroke:rgb(255,255,220); color-interpolation:linearRGB; stroke-width:1.3333;"><path style="stroke:none;" d="M0 -5.3333 C2.9455 -5.3333 5.3333 -2.9455 5.3333 0 L5.3333 0 C5.3333 2.9455 2.9455 5.3333 -0 5.3333 C-2.9455 5.3333 -5.3333 2.9455 -5.3333 -0 C-5.3333 -2.9455 -2.9455 -5.3333 0 -5.3333 ZM0 -8 C-4.4183 -8 -8 -4.4183 -8 -0 C-8 4.4183 -4.4183 8 -0 8 C4.4183 8 8 4.4183 8 0 L8 0 C8 -4.4183 4.4183 -8 0 -8 Z"/></g><g style="fill:rgb(250,250,255); text-rendering:optimizeSpeed; color-rendering:optimizeSpeed; image-rendering:optimizeSpeed; shape-rendering:crispEdges; stroke:rgb(250,250,255); color-interpolation:sRGB;"><path style="stroke:none;" d="M1529.6667 446.1687 L1529.6667 530.4687 L1529.6768 530.775 L1529.7068 531.08 L1529.7567 531.3823 L1529.8263 531.6808 L1529.9153 531.9741 L1530.0232 532.2609 L1530.1497 532.54 L1530.2942 532.8104 L1530.4561 533.0706 L1530.6345 533.3197 L1530.829 533.5566 L1531.0385 533.7803 L1531.2621 533.9898 L1531.499 534.1842 L1531.7482 534.3627 L1532.0084 534.5245 L1532.2787 534.669 L1532.5579 534.7955 L1532.8446 534.9034 L1533.1379 534.9924 L1533.4364 535.062 L1533.7388 535.1119 L1534.0437 535.142 L1534.3501 535.152 L1683.65 535.152 L1683.9563 535.142 L1684.2614 535.1119 L1684.5637 535.062 L1684.8622 534.9924 L1685.1554 534.9034 L1685.4423 534.7955 L1685.7214 534.669 L1685.9917 534.5245 L1686.252 534.3627 L1686.5011 534.1842 L1686.738 533.9898 L1686.9617 533.7803 L1687.1711 533.5566 L1687.3656 533.3197 L1687.5441 533.0706 L1687.7059 532.8104 L1687.8503 532.54 L1687.9769 532.2609 L1688.0848 531.9741 L1688.1738 531.6808 L1688.2434 531.3823 L1688.2933 531.08 L1688.3234 530.775 L1688.3334 530.4687 L1688.3334 446.1687 L1688.3234 445.8624 L1688.2933 445.5574 L1688.2434 445.255 L1688.1738 444.9565 L1688.0848 444.6633 L1687.9769 444.3765 L1687.8503 444.0973 L1687.7059 443.827 L1687.5441 443.5668 L1687.3656 443.3177 L1687.1711 443.0807 L1686.9617 442.8571 L1686.738 442.6476 L1686.5011 442.4532 L1686.252 442.2746 L1685.9917 442.1128 L1685.7214 441.9683 L1685.4423 441.8419 L1685.1554 441.7339 L1684.8622 441.6449 L1684.5637 441.5753 L1684.2614 441.5254 L1683.9563 441.4954 L1683.65 441.4854 L1534.3501 441.4854 L1534.0437 441.4954 L1533.7388 441.5254 L1533.4364 441.5753 L1533.1379 441.6449 L1532.8446 441.7339 L1532.5579 441.8419 L1532.2787 441.9683 L1532.0084 442.1128 L1531.7482 442.2746 L1531.499 442.4532 L1531.2621 442.6476 L1531.0385 442.8571 L1530.829 443.0807 L1530.6345 443.3177 L1530.4561 443.5668 L1530.2942 443.827 L1530.1497 444.0973 L1530.0232 444.3765 L1529.9153 444.6633 L1529.8263 444.9565 L1529.7567 445.255 L1529.7068 445.5574 L1529.6768 445.8624 Z"/></g><g style="stroke-linecap:butt; fill:rgb(89,89,89); text-rendering:geometricPrecision; image-rendering:optimizeQuality; color-rendering:optimizeQuality; stroke-linejoin:round; stroke:rgb(89,89,89); color-interpolation:linearRGB; stroke-width:1.3333;"><path d="M1529.6667 530.4687 L1529.6768 530.775 L1529.7068 531.08 L1529.7567 531.3823 L1529.8263 531.6808 L1529.9153 531.9741 L1530.0232 532.2609 L1530.1497 532.54 L1530.2942 532.8104 L1530.4561 533.0706 L1530.6345 533.3197 L1530.829 533.5566 L1531.0385 533.7803 L1531.2621 533.9898 L1531.499 534.1842 L1531.7482 534.3627 L1532.0084 534.5245 L1532.2787 534.669 L1532.5579 534.7955 L1532.8446 534.9034 L1533.1379 534.9924 L1533.4364 535.062 L1533.7388 535.1119 L1534.0437 535.142 L1534.3501 535.152 L1683.65 535.152 L1683.9563 535.142 L1684.2614 535.1119 L1684.5637 535.062 L1684.8622 534.9924 L1685.1554 534.9034 L1685.4423 534.7955 L1685.7214 534.669 L1685.9917 534.5245 L1686.252 534.3627 L1686.5011 534.1842 L1686.738 533.9898 L1686.9617 533.7803 L1687.1711 533.5566 L1687.3656 533.3197 L1687.5441 533.0706 L1687.7059 532.8104 L1687.8503 532.54 L1687.9769 532.2609 L1688.0848 531.9741 L1688.1738 531.6808 L1688.2434 531.3823 L1688.2933 531.08 L1688.3234 530.775 L1688.3334 530.4687 L1688.3334 446.1687 L1688.3234 445.8624 L1688.2933 445.5574 L1688.2434 445.255 L1688.1738 444.9565 L1688.0848 444.6633 L1687.9769 444.3765 L1687.8503 444.0973 L1687.7059 443.827 L1687.5441 443.5668 L1687.3656 443.3177 L1687.1711 443.0807 L1686.9617 442.8571 L1686.738 442.6476 L1686.5011 442.4532 L1686.252 442.2746 L1685.9917 442.1128 L1685.7214 441.9683 L1685.4423 441.8419 L1685.1554 441.7339 L1684.8622 441.6449 L1684.5637 441.5753 L1684.2614 441.5254 L1683.9563 441.4954 L1683.65 441.4854 L1534.3501 441.4854 L1534.0437 441.4954 L1533.7388 441.5254 L1533.4364 441.5753 L1533.1379 441.6449 L1532.8446 441.7339 L1532.5579 441.8419 L1532.2787 441.9683 L1532.0084 442.1128 L1531.7482 442.2746 L1531.499 442.4532 L1531.2621 442.6476 L1531.0385 442.8571 L1530.829 443.0807 L1530.6345 443.3177 L1530.4561 443.5668 L1530.2942 443.827 L1530.1497 444.0973 L1530.0232 444.3765 L1529.9153 444.6633 L1529.8263 444.9565 L1529.7567 445.255 L1529.7068 445.5574 L1529.6768 445.8624 L1529.6667 446.1687 Z" style="fill:none; fill-rule:evenodd;"/></g><g transform="translate(1543,482)" style="font-size:26.6667px; fill:rgb(64,64,64); text-rendering:geometricPrecision; color-rendering:optimizeQuality; image-rendering:optimizeQuality; stroke:rgb(64,64,64); color-interpolation:linearRGB;"><path style="stroke:none;" d="M0.125 0 L7.5938 -10.0781 L1 -19.3281 L4.0469 -19.3281 L7.5469 -14.375 Q8.6562 -12.8281 9.1094 -12 Q9.75 -13.0469 10.6406 -14.2031 L14.5312 -19.3281 L17.3125 -19.3281 L10.5156 -10.2188 L17.8438 0 L14.6719 0 L9.8125 -6.8906 Q9.4062 -7.4844 8.9688 -8.1875 Q8.3125 -7.125 8.0469 -6.7344 L3.1875 0 L0.125 0 Z"/></g><g transform="translate(1569,482)" style="font-size:26.6667px; fill:rgb(0,153,255); text-rendering:geometricPrecision; image-rendering:optimizeQuality; color-rendering:optimizeQuality; stroke:rgb(0,153,255); color-interpolation:linearRGB; font-weight:bold;"><path style="stroke:none;" d="M10.625 0 L6.9219 0 L6.9219 -13.9688 Q4.8906 -12.0625 2.1406 -11.1562 L2.1406 -14.5156 Q3.5938 -14.9844 5.2891 -16.3125 Q6.9844 -17.6406 7.625 -19.4062 L10.625 -19.4062 L10.625 0 ZM22.2312 -19.4062 Q25.0437 -19.4062 26.6218 -17.4062 Q28.5124 -15.0312 28.5124 -9.5312 Q28.5124 -4.0469 26.6062 -1.6406 Q25.0437 0.3281 22.2312 0.3281 Q19.4187 0.3281 17.6921 -1.8438 Q15.9656 -4.0156 15.9656 -9.5781 Q15.9656 -15.0312 17.8562 -17.4219 Q19.4187 -19.4062 22.2312 -19.4062 ZM22.2312 -16.3281 Q21.5593 -16.3281 21.0359 -15.9062 Q20.5124 -15.4844 20.2156 -14.375 Q19.8406 -12.9375 19.8406 -9.5312 Q19.8406 -6.125 20.1843 -4.8594 Q20.5281 -3.5938 21.0437 -3.1719 Q21.5593 -2.75 22.2312 -2.75 Q22.9031 -2.75 23.4343 -3.1719 Q23.9656 -3.5938 24.2468 -4.7031 Q24.6374 -6.125 24.6374 -9.5312 Q24.6374 -12.9375 24.2937 -14.2109 Q23.9499 -15.4844 23.4265 -15.9062 Q22.9031 -16.3281 22.2312 -16.3281 ZM37.0561 -19.4062 Q39.8686 -19.4062 41.4467 -17.4062 Q43.3374 -15.0312 43.3374 -9.5312 Q43.3374 -4.0469 41.4311 -1.6406 Q39.8686 0.3281 37.0561 0.3281 Q34.2436 0.3281 32.5171 -1.8438 Q30.7905 -4.0156 30.7905 -9.5781 Q30.7905 -15.0312 32.6811 -17.4219 Q34.2436 -19.4062 37.0561 -19.4062 ZM37.0561 -16.3281 Q36.3842 -16.3281 35.8608 -15.9062 Q35.3374 -15.4844 35.0405 -14.375 Q34.6655 -12.9375 34.6655 -9.5312 Q34.6655 -6.125 35.0092 -4.8594 Q35.353 -3.5938 35.8686 -3.1719 Q36.3842 -2.75 37.0561 -2.75 Q37.728 -2.75 38.2592 -3.1719 Q38.7905 -3.5938 39.0717 -4.7031 Q39.4624 -6.125 39.4624 -9.5312 Q39.4624 -12.9375 39.1186 -14.2109 Q38.7749 -15.4844 38.2514 -15.9062 Q37.728 -16.3281 37.0561 -16.3281 ZM51.8811 -19.4062 Q54.6936 -19.4062 56.2717 -17.4062 Q58.1623 -15.0312 58.1623 -9.5312 Q58.1623 -4.0469 56.2561 -1.6406 Q54.6936 0.3281 51.8811 0.3281 Q49.0686 0.3281 47.342 -1.8438 Q45.6154 -4.0156 45.6154 -9.5781 Q45.6154 -15.0312 47.5061 -17.4219 Q49.0686 -19.4062 51.8811 -19.4062 ZM51.8811 -16.3281 Q51.2092 -16.3281 50.6857 -15.9062 Q50.1623 -15.4844 49.8654 -14.375 Q49.4904 -12.9375 49.4904 -9.5312 Q49.4904 -6.125 49.8342 -4.8594 Q50.1779 -3.5938 50.6936 -3.1719 Q51.2092 -2.75 51.8811 -2.75 Q52.5529 -2.75 53.0842 -3.1719 Q53.6154 -3.5938 53.8967 -4.7031 Q54.2873 -6.125 54.2873 -9.5312 Q54.2873 -12.9375 53.9436 -14.2109 Q53.5998 -15.4844 53.0764 -15.9062 Q52.5529 -16.3281 51.8811 -16.3281 ZM66.706 -19.4062 Q69.5185 -19.4062 71.0966 -17.4062 Q72.9872 -15.0312 72.9872 -9.5312 Q72.9872 -4.0469 71.081 -1.6406 Q69.5185 0.3281 66.706 0.3281 Q63.8935 0.3281 62.1669 -1.8438 Q60.4404 -4.0156 60.4404 -9.5781 Q60.4404 -15.0312 62.331 -17.4219 Q63.8935 -19.4062 66.706 -19.4062 ZM66.706 -16.3281 Q66.0341 -16.3281 65.5107 -15.9062 Q64.9872 -15.4844 64.6904 -14.375 Q64.3154 -12.9375 64.3154 -9.5312 Q64.3154 -6.125 64.6591 -4.8594 Q65.0029 -3.5938 65.5185 -3.1719 Q66.0341 -2.75 66.706 -2.75 Q67.3779 -2.75 67.9091 -3.1719 Q68.4404 -3.5938 68.7216 -4.7031 Q69.1122 -6.125 69.1122 -9.5312 Q69.1122 -12.9375 68.7685 -14.2109 Q68.4247 -15.4844 67.9013 -15.9062 Q67.3779 -16.3281 66.706 -16.3281 Z"/></g><g transform="translate(1543,516)" style="font-size:26.6667px; fill:rgb(64,64,64); text-rendering:geometricPrecision; color-rendering:optimizeQuality; image-rendering:optimizeQuality; stroke:rgb(64,64,64); color-interpolation:linearRGB;"><path style="stroke:none;" d="M7.5312 0 L7.5312 -8.1875 L0.0781 -19.3281 L3.1875 -19.3281 L7 -13.5 Q8.0625 -11.8594 8.9688 -10.2344 Q9.8281 -11.75 11.0781 -13.6406 L14.8125 -19.3281 L17.7969 -19.3281 L10.0781 -8.1875 L10.0781 0 L7.5312 0 Z"/></g><g transform="translate(1569,516)" style="font-size:26.6667px; fill:rgb(0,153,255); text-rendering:geometricPrecision; image-rendering:optimizeQuality; color-rendering:optimizeQuality; stroke:rgb(0,153,255); color-interpolation:linearRGB; font-weight:bold;"><path style="stroke:none;" d="M1.5156 -5.1562 L1.5156 -8.8594 L8.7969 -8.8594 L8.7969 -5.1562 L1.5156 -5.1562 ZM9.8924 -5.125 L13.4705 -5.5625 Q13.6424 -4.1875 14.4002 -3.4688 Q15.158 -2.75 16.2205 -2.75 Q17.3611 -2.75 18.1502 -3.6172 Q18.9392 -4.4844 18.9392 -5.9531 Q18.9392 -7.3594 18.1892 -8.1719 Q17.4392 -8.9844 16.3455 -8.9844 Q15.6424 -8.9844 14.658 -8.7188 L15.0642 -11.7344 Q16.5642 -11.6875 17.3533 -12.3828 Q18.1424 -13.0781 18.1424 -14.2188 Q18.1424 -15.2031 17.5642 -15.7812 Q16.9861 -16.3594 16.0174 -16.3594 Q15.0799 -16.3594 14.408 -15.7031 Q13.7361 -15.0469 13.5799 -13.7812 L10.1736 -14.3594 Q10.5174 -16.1094 11.2361 -17.1562 Q11.9549 -18.2031 13.2439 -18.8047 Q14.533 -19.4062 16.1267 -19.4062 Q18.8611 -19.4062 20.5017 -17.6719 Q21.8611 -16.25 21.8611 -14.4531 Q21.8611 -11.9062 19.0799 -10.3906 Q20.7361 -10.0312 21.7361 -8.7891 Q22.7361 -7.5469 22.7361 -5.7969 Q22.7361 -3.25 20.8767 -1.4609 Q19.0174 0.3281 16.2517 0.3281 Q13.6267 0.3281 11.9002 -1.1797 Q10.1736 -2.6875 9.8924 -5.125 ZM24.9048 -4.9688 L28.5923 -5.3594 Q28.7486 -4.0938 29.5298 -3.3672 Q30.3111 -2.6406 31.3267 -2.6406 Q32.4829 -2.6406 33.2876 -3.5781 Q34.0923 -4.5156 34.0923 -6.4219 Q34.0923 -8.2031 33.2954 -9.0938 Q32.4986 -9.9844 31.2173 -9.9844 Q29.6236 -9.9844 28.3579 -8.5625 L25.3423 -9 L27.2486 -19.0625 L37.0454 -19.0625 L37.0454 -15.5938 L30.0611 -15.5938 L29.4829 -12.3125 Q30.7173 -12.9375 32.0142 -12.9375 Q34.4673 -12.9375 36.1861 -11.1406 Q37.9048 -9.3438 37.9048 -6.4844 Q37.9048 -4.0938 36.5142 -2.2344 Q34.6236 0.3281 31.2798 0.3281 Q28.6079 0.3281 26.9204 -1.1094 Q25.2329 -2.5469 24.9048 -4.9688 ZM40.4641 0 L40.4641 -3.7031 L44.1672 -3.7031 L44.1672 0 L40.4641 0 ZM47.1513 -4.4688 L50.7451 -4.8594 Q50.8701 -3.7656 51.4248 -3.2422 Q51.9794 -2.7188 52.9013 -2.7188 Q54.0419 -2.7188 54.8466 -3.7734 Q55.6513 -4.8281 55.8701 -8.1406 Q54.4794 -6.5312 52.3857 -6.5312 Q50.1044 -6.5312 48.4482 -8.2891 Q46.7919 -10.0469 46.7919 -12.875 Q46.7919 -15.8125 48.5341 -17.6094 Q50.2763 -19.4062 52.9794 -19.4062 Q55.9326 -19.4062 57.8154 -17.1328 Q59.6982 -14.8594 59.6982 -9.6562 Q59.6982 -4.3438 57.7294 -2 Q55.7607 0.3438 52.6201 0.3438 Q50.3544 0.3438 48.956 -0.8594 Q47.5576 -2.0625 47.1513 -4.4688 ZM55.5419 -12.5625 Q55.5419 -14.3594 54.7216 -15.3438 Q53.9013 -16.3281 52.8076 -16.3281 Q51.7919 -16.3281 51.1123 -15.5234 Q50.4326 -14.7188 50.4326 -12.875 Q50.4326 -11 51.1669 -10.1172 Q51.9013 -9.2344 53.0107 -9.2344 Q54.0732 -9.2344 54.8076 -10.0781 Q55.5419 -10.9219 55.5419 -12.5625 ZM74.4606 -14.5938 L70.8669 -14.2031 Q70.7419 -15.3125 70.1872 -15.8359 Q69.6325 -16.3594 68.7419 -16.3594 Q67.57 -16.3594 66.7575 -15.3047 Q65.945 -14.25 65.7419 -10.9219 Q67.1325 -12.5469 69.1794 -12.5469 Q71.5075 -12.5469 73.1559 -10.7812 Q74.8044 -9.0156 74.8044 -6.2188 Q74.8044 -3.25 73.07 -1.4609 Q71.3356 0.3281 68.6013 0.3281 Q65.6794 0.3281 63.7888 -1.9453 Q61.8981 -4.2188 61.8981 -9.4062 Q61.8981 -14.7188 63.8669 -17.0625 Q65.8356 -19.4062 68.9763 -19.4062 Q71.1794 -19.4062 72.6169 -18.1719 Q74.0544 -16.9375 74.4606 -14.5938 ZM66.0544 -6.5156 Q66.0544 -4.7031 66.8903 -3.7266 Q67.7263 -2.75 68.7888 -2.75 Q69.82 -2.75 70.4997 -3.5469 Q71.1794 -4.3438 71.1794 -6.1875 Q71.1794 -8.0625 70.445 -8.9453 Q69.7106 -9.8281 68.6013 -9.8281 Q67.5388 -9.8281 66.7966 -8.9844 Q66.0544 -8.1406 66.0544 -6.5156 ZM76.7856 -4.9688 L80.4731 -5.3594 Q80.6293 -4.0938 81.4106 -3.3672 Q82.1918 -2.6406 83.2074 -2.6406 Q84.3637 -2.6406 85.1684 -3.5781 Q85.9731 -4.5156 85.9731 -6.4219 Q85.9731 -8.2031 85.1762 -9.0938 Q84.3793 -9.9844 83.0981 -9.9844 Q81.5043 -9.9844 80.2387 -8.5625 L77.2231 -9 L79.1293 -19.0625 L88.9262 -19.0625 L88.9262 -15.5938 L81.9418 -15.5938 L81.3637 -12.3125 Q82.5981 -12.9375 83.8949 -12.9375 Q86.3481 -12.9375 88.0668 -11.1406 Q89.7856 -9.3438 89.7856 -6.4844 Q89.7856 -4.0938 88.3949 -2.2344 Q86.5043 0.3281 83.1606 0.3281 Q80.4887 0.3281 78.8012 -1.1094 Q77.1137 -2.5469 76.7856 -4.9688 ZM104.0636 -3.4375 L104.0636 0 L91.0793 0 Q91.298 -1.9531 92.3527 -3.6953 Q93.4074 -5.4375 96.5168 -8.3281 Q99.0168 -10.6719 99.5793 -11.5 Q100.3449 -12.6406 100.3449 -13.7656 Q100.3449 -15 99.6808 -15.6641 Q99.0168 -16.3281 97.8449 -16.3281 Q96.6886 -16.3281 96.0011 -15.6328 Q95.3136 -14.9375 95.2043 -13.3125 L91.5168 -13.6875 Q91.8449 -16.75 93.5871 -18.0781 Q95.3293 -19.4062 97.9386 -19.4062 Q100.798 -19.4062 102.4308 -17.8672 Q104.0636 -16.3281 104.0636 -14.0312 Q104.0636 -12.7188 103.5949 -11.5391 Q103.1261 -10.3594 102.1105 -9.0781 Q101.4386 -8.2188 99.6886 -6.6094 Q97.9386 -5 97.4699 -4.4688 Q97.0011 -3.9375 96.7043 -3.4375 L104.0636 -3.4375 Z"/></g><g transform="translate(1527,537.8187)" style="fill:rgb(38,38,38); text-rendering:geometricPrecision; color-rendering:optimizeQuality; image-rendering:optimizeQuality; color-interpolation:linearRGB; stroke:rgb(38,38,38);"><circle r="5.3333" style="stroke:none;" cx="0" cy="0"/></g><g transform="translate(1527,537.8187)" style="stroke-linecap:butt; fill:rgb(255,255,220); text-rendering:geometricPrecision; image-rendering:optimizeQuality; color-rendering:optimizeQuality; stroke-linejoin:round; stroke:rgb(255,255,220); color-interpolation:linearRGB; stroke-width:1.3333;"><path style="stroke:none;" d="M0 -5.3333 C2.9455 -5.3333 5.3333 -2.9455 5.3333 0 L5.3333 0 C5.3333 2.9455 2.9455 5.3333 -0 5.3333 C-2.9455 5.3333 -5.3333 2.9455 -5.3333 -0 C-5.3333 -2.9455 -2.9455 -5.3333 0 -5.3333 ZM0 -8 C-4.4183 -8 -8 -4.4183 -8 -0 C-8 4.4183 -4.4183 8 -0 8 C4.4183 8 8 4.4183 8 0 L8 0 C8 -4.4183 4.4183 -8 0 -8 Z"/></g></g></svg>